<mxfile host="Electron" agent="Mozilla/5.0 (Windows NT 10.0; Win64; x64) AppleWebKit/537.36 (KHTML, like Gecko) draw.io/26.0.9 Chrome/128.0.6613.186 Electron/32.2.5 Safari/537.36" version="26.0.9">
  <diagram id="Ht1M8jgEwFfnCIfOTk4-" name="Page-1">
    <mxGraphModel dx="2136" dy="1226" grid="1" gridSize="10" guides="1" tooltips="1" connect="1" arrows="1" fold="1" page="1" pageScale="1" pageWidth="1280" pageHeight="1080" math="0" shadow="0">
      <root>
        <mxCell id="0" />
        <mxCell id="1" parent="0" />
        <mxCell id="59H46sRm7DmlmpqxXPBq-1" value="&lt;font style=&quot;font-size: 20px;&quot;&gt;On-Premise&lt;/font&gt;" style="sketch=0;outlineConnect=0;gradientColor=none;html=1;whiteSpace=wrap;fontSize=12;fontStyle=0;shape=mxgraph.aws4.group;grIcon=mxgraph.aws4.group_on_premise;strokeColor=#858B94;fillColor=none;verticalAlign=top;align=left;spacingLeft=30;fontColor=#858B94;dashed=0;" vertex="1" parent="1">
          <mxGeometry x="90" y="370" width="1080" height="630" as="geometry" />
        </mxCell>
        <mxCell id="59H46sRm7DmlmpqxXPBq-2" value="" style="shape=image;imageAspect=0;aspect=fixed;verticalLabelPosition=bottom;verticalAlign=top;image=data:image/webp,UklGRmQKAABXRUJQVlA4TFcKAAAv/8F/EL8HKbZtWc06jx7G+BeALzKMgbx70olw5LZtIDFJOzP7/6fuPXbcSJIiRfXukf9e4punIDeS5MhBVaFxq38nPTkDaC194oseaHLQVXd4qOIFoU/yJvDTdTn5+WYQB+2ffRKOcJMkOpHJfxkS9WgqVGsssNTJyLEPiXqDGCVQYWG1ZWqB4IjUGnhUA5cUkgqOKAE6iSqBCxTThgNAOgbgfQGJwNKFEQUEm9SQEv4VHIBHBQIBIBFYAqPEBIJAABqmDSMlEKhMEIiJGIFDQIj+wzAi9v8KuACE6C+MKDsAgphCQHzDpECgAA2LHYRCQAzacAGIKQBQWAJigkIQYjRcAoKAWEAgGKaBCzD9jZTCBJUgkOAfC0bhg+ifWflFwyEgCOAKQjhR//vigwAEAfoWXkbYWr1qedXy2k2tw3mDqIcknllHqt46vvr36lzGKTA7dH/jvMHa0fyfXw8bPrwMa9i2qW5qJWnS4u5uxd3d3d3dHSq4bcHd3d3dCym7uBxomKRNkLptbU+Ffv83OdDJmpnvO7Yi+j8BoPtf97/uf93/uv91/+v+1/2v+1/3v+5//Z0m3o30xHifo/tP95/uP91/uv/+S91i3qvTk+740od5L+km6jDv3dwd5r0eerVhvLdyU5Tx3sAd432O7r//qyGR+rqzlSmklxrC2OMalPcj+/vKFLLrzr7+vCrRpYa4YWxlOsn9wP7V51UIrhv7xkATtaXe/xZ2JJbYVrNvDylOal3Y9wytQWhfXn4X5hpvILPZ7Htv9CKyIhHfjW35QmN7WRYeS6UwX5al51MI7HTWsHMp5NWRZfWV7NR1OMvYiUzaqsA43G4krXU8MH/KignngvUhrNmMT0dHsrIEccKCc1FVO8btRRNRLeaHLaUpUzBHrk4kVY3xHJRMUYu5Yhsp6g5frLOiRP/Je4yb7H/yXsjdn7yX17IkxvmrTDVR+tG8sUHktJ+7D3HEZPnAHVtKTL8y/sPz0lI9D2D+tLTYEyLiSemCJ7DZlGQI9YjnXvJSzcZ7gpu2Nt4ruslr472puxDef3d31Mb5jqyLZp5ZW15qMd5LuWnDeG/lpijjvYE7xvscd+cY59uyro2HHCSkPz3EHkVHkzyEDaCjDZ5yjI5OeoozhYyueQqrTUZPPGY5GTk85jUVGZnHuv5JRD6ew7oRUbIHDSKieA/a4C4tb6nWVRr+3rvnV1u0L5XTh1JyeNB57/INp/90+TH7rp/vX9o4uE4pHwpJ8SC7i2W96862YZ2SiSPDg/i1n53WzkwY4NS+vz9Y0cVCFh/FwBi7MyyWKIKEwdjnJdEkcUkgjNnGZxLEbqEwFlmWHvwEw5xTM6lhrGgYiyxPDLXFwxwTM0mhgIAYu1GGEiyhImKOqZl0AFeExNgZQggU1BxC+E1MoemEkEtM04EQ4J2IImJIYZ6IlgIp1BZQeG5ayP5ZPAuBFuAn4UREU0M14SwDavB6JJjPUeQACwQzGeihoF0ooXEEAbuEMhwoorxIgrKRBBwXSCPQeN+TvBd2U+Ik7wlu4k/y3sHded57uZt/kvNZvPi6hHHMoHV4u1YU4fmAKqM/CWIO0OVgMZwz0UXKFCHYCgFVRs38yIRYH4iy0vowJsYAIMm8g98wUV7MIIikkUdcTJi3Y4EYczZfeJeJNDg/0KElT7fRK4OYYD+UBU00JyNuTNGiRct2bTjY76fzn5mAP7UEbazFqDa4ImjkSKq5XQC0cjHRnI0FzTxFM5u9QTvvU0zESAto5xc7wdwqBVr6KyNX18IvoKldyOVCBdDYxsTyoJ8RtPYPUvllYipo70RCeTo+GbQ4kExu9soAbd5EI9ZAX9DsQwTyeEVVE2j4NeKwnRle3ADa/g+6eH9zw4DSZtD+u/RgC7qya+nAakWMIMjHFOBq0vHr5UoXiM8E0Vop4CAI3UYBXcXmIIC3FrExAuwPYnfg38fsgvuEf5NA8MHoZy8qusfotxtEfw/9fIX3GvtOg/BvYl8H8R1CvvMG8W1Cviog/gDcu2WRgKm41wwkcBTq3TbLQEPU6wUyWB3z7pmkoBzmNQMpjEK8GxY5METgXVWQxNdod9YgC3vRriPI4nysOwPSOBrpXJXkoSbSrQd5LIlzEXklIjMM5SaATN7AuCfZpWIdxjUCqRyEcOctctEV4VqCXObGt59BNh9i28cc0nEQ2/qCdI5HtrNG+WiPa87iIJ/eDlSbBDJ6HtPue0uJP6bVACltjmg7QE5z4tmzvyQF3qBZbZDVZVi2FqS1C5I9TpGXDBuOVQGJ3YZiK0Bm+2LYnVSpKYZg9nYgt6/xayhI7mz0Om2UnSTsehYF0nsDt1zVQH6H4tZkkOACqHXWJENwE7Ee5AEpHoFXzvYgx9FOtBoFsrwNq3YYpKkqUl3LBtJsfoFS1iIg0bMwyt4NZDqPHaHGgFwfwKfFINlV0WmLUbYst5DpnDdIdw9cCooG+c58jEkfEkHGByFSWEeQ8uy/oJG9OUj6DCxy9QRZj36PRKNA3v1waBZIfNxHDFoIUj8BgTZY5C71AfrsNIPkj8aen7xA9jPu487PZpD/HqizyggKaLmEOCssoIRl7GgTYAFFnIc1fgZQxZRnODMVFLIexjh7gkoajuDL+5qgliXDsOVhS1DNIcjyvBQop/kKqlzPCwpaOBRR9qWCkvbBk0AzqKlhD5I4+oCyRgWjSHBrUNiqLgSJLAxKOxE/tqeC2lr2IIdjpAFUN/kdagRVBAVOtCHG6XhQ4iZo4fIzgyLPRYon3UCZDRtR4kAMKLRpPz5E9DOAUmc/jw3XE0G1416hgssvE9S74CNEeNcWlLx0MBY45/qAopd6hAM3KoO653+OAI6pmaDyhR4r39XioPj5H6vdw/5mUP4CdxTOtfovwMD4s8p2vgIgYbbNambtZwQ0NPormGN+CqBiP7tqHUwAbKz6UamOVgCELHhTnV7XNgBK+qxSpBc9zICWdW0K9HTkF8DMUm9V536/L4Cc2Vcozb1eJkDQTkHK8rKeF+BoaqBLSS7UNQOedg5RDvvWioCryYvtSvFxWR7A19JH1OHt6FTA2ep3lMB5sLoB0NZnfIT0hUzNCbhbeK1d5sJ2dbAA/ubf6JS1yJGxgMT5Njol7M7UgoDJibtdcvVoQSVA5wILQqXp8aL2XoDS2Xu+lqG7fh3NgNfGKscl5+r4koDe+aYGyYp1Zb0cgOMW38BQ6bBfmNrRCzDdu9EJp0S8WdwkDhA+pfbGDzLwMrBuTsD7L10XPxfZp2NTuqYB+lsqDz5oE1D42fkNE4xAhibf4Sdt4gi9uLxPWRPQo8l31PpXLo0Lv7puULWiBqDM1LZj1r22a5Dz9sFFo6vkNwORZitRZ/iaS1ZNcARd3r10QKeCJiDZON+645bsOBwSxp/11ZVtP04cUK18lAVI2BBfonPzXiOnzV+75dC1ly9fWq3W9197aLVan798GXnh5NaVi5dMHfdHw2oVC/1lBN3/uv91/+v+1/2v+1/3v+5/3f+6/3X/6zwHAA==;" vertex="1" parent="1">
          <mxGeometry x="840" y="550" width="142" height="142" as="geometry" />
        </mxCell>
        <mxCell id="59H46sRm7DmlmpqxXPBq-3" value="" style="shape=image;imageAspect=0;aspect=fixed;verticalLabelPosition=bottom;verticalAlign=top;image=data:image/webp,UklGRmQKAABXRUJQVlA4TFcKAAAv/8F/EL8HKbZtWc06jx7G+BeALzKMgbx70olw5LZtIDFJOzP7/6fuPXbcSJIiRfXukf9e4punIDeS5MhBVaFxq38nPTkDaC194oseaHLQVXd4qOIFoU/yJvDTdTn5+WYQB+2ffRKOcJMkOpHJfxkS9WgqVGsssNTJyLEPiXqDGCVQYWG1ZWqB4IjUGnhUA5cUkgqOKAE6iSqBCxTThgNAOgbgfQGJwNKFEQUEm9SQEv4VHIBHBQIBIBFYAqPEBIJAABqmDSMlEKhMEIiJGIFDQIj+wzAi9v8KuACE6C+MKDsAgphCQHzDpECgAA2LHYRCQAzacAGIKQBQWAJigkIQYjRcAoKAWEAgGKaBCzD9jZTCBJUgkOAfC0bhg+ifWflFwyEgCOAKQjhR//vigwAEAfoWXkbYWr1qedXy2k2tw3mDqIcknllHqt46vvr36lzGKTA7dH/jvMHa0fyfXw8bPrwMa9i2qW5qJWnS4u5uxd3d3d3dHSq4bcHd3d3dCym7uBxomKRNkLptbU+Ffv83OdDJmpnvO7Yi+j8BoPtf97/uf93/uv91/+v+1/2v+1/3v+5//Z0m3o30xHifo/tP95/uP91/uv/+S91i3qvTk+740od5L+km6jDv3dwd5r0eerVhvLdyU5Tx3sAd432O7r//qyGR+rqzlSmklxrC2OMalPcj+/vKFLLrzr7+vCrRpYa4YWxlOsn9wP7V51UIrhv7xkATtaXe/xZ2JJbYVrNvDylOal3Y9wytQWhfXn4X5hpvILPZ7Htv9CKyIhHfjW35QmN7WRYeS6UwX5al51MI7HTWsHMp5NWRZfWV7NR1OMvYiUzaqsA43G4krXU8MH/KignngvUhrNmMT0dHsrIEccKCc1FVO8btRRNRLeaHLaUpUzBHrk4kVY3xHJRMUYu5Yhsp6g5frLOiRP/Je4yb7H/yXsjdn7yX17IkxvmrTDVR+tG8sUHktJ+7D3HEZPnAHVtKTL8y/sPz0lI9D2D+tLTYEyLiSemCJ7DZlGQI9YjnXvJSzcZ7gpu2Nt4ruslr472puxDef3d31Mb5jqyLZp5ZW15qMd5LuWnDeG/lpijjvYE7xvscd+cY59uyro2HHCSkPz3EHkVHkzyEDaCjDZ5yjI5OeoozhYyueQqrTUZPPGY5GTk85jUVGZnHuv5JRD6ew7oRUbIHDSKieA/a4C4tb6nWVRr+3rvnV1u0L5XTh1JyeNB57/INp/90+TH7rp/vX9o4uE4pHwpJ8SC7i2W96862YZ2SiSPDg/i1n53WzkwY4NS+vz9Y0cVCFh/FwBi7MyyWKIKEwdjnJdEkcUkgjNnGZxLEbqEwFlmWHvwEw5xTM6lhrGgYiyxPDLXFwxwTM0mhgIAYu1GGEiyhImKOqZl0AFeExNgZQggU1BxC+E1MoemEkEtM04EQ4J2IImJIYZ6IlgIp1BZQeG5ayP5ZPAuBFuAn4UREU0M14SwDavB6JJjPUeQACwQzGeihoF0ooXEEAbuEMhwoorxIgrKRBBwXSCPQeN+TvBd2U+Ik7wlu4k/y3sHded57uZt/kvNZvPi6hHHMoHV4u1YU4fmAKqM/CWIO0OVgMZwz0UXKFCHYCgFVRs38yIRYH4iy0vowJsYAIMm8g98wUV7MIIikkUdcTJi3Y4EYczZfeJeJNDg/0KElT7fRK4OYYD+UBU00JyNuTNGiRct2bTjY76fzn5mAP7UEbazFqDa4ImjkSKq5XQC0cjHRnI0FzTxFM5u9QTvvU0zESAto5xc7wdwqBVr6KyNX18IvoKldyOVCBdDYxsTyoJ8RtPYPUvllYipo70RCeTo+GbQ4kExu9soAbd5EI9ZAX9DsQwTyeEVVE2j4NeKwnRle3ADa/g+6eH9zw4DSZtD+u/RgC7qya+nAakWMIMjHFOBq0vHr5UoXiM8E0Vop4CAI3UYBXcXmIIC3FrExAuwPYnfg38fsgvuEf5NA8MHoZy8qusfotxtEfw/9fIX3GvtOg/BvYl8H8R1CvvMG8W1Cviog/gDcu2WRgKm41wwkcBTq3TbLQEPU6wUyWB3z7pmkoBzmNQMpjEK8GxY5METgXVWQxNdod9YgC3vRriPI4nysOwPSOBrpXJXkoSbSrQd5LIlzEXklIjMM5SaATN7AuCfZpWIdxjUCqRyEcOctctEV4VqCXObGt59BNh9i28cc0nEQ2/qCdI5HtrNG+WiPa87iIJ/eDlSbBDJ6HtPue0uJP6bVACltjmg7QE5z4tmzvyQF3qBZbZDVZVi2FqS1C5I9TpGXDBuOVQGJ3YZiK0Bm+2LYnVSpKYZg9nYgt6/xayhI7mz0Om2UnSTsehYF0nsDt1zVQH6H4tZkkOACqHXWJENwE7Ee5AEpHoFXzvYgx9FOtBoFsrwNq3YYpKkqUl3LBtJsfoFS1iIg0bMwyt4NZDqPHaHGgFwfwKfFINlV0WmLUbYst5DpnDdIdw9cCooG+c58jEkfEkHGByFSWEeQ8uy/oJG9OUj6DCxy9QRZj36PRKNA3v1waBZIfNxHDFoIUj8BgTZY5C71AfrsNIPkj8aen7xA9jPu487PZpD/HqizyggKaLmEOCssoIRl7GgTYAFFnIc1fgZQxZRnODMVFLIexjh7gkoajuDL+5qgliXDsOVhS1DNIcjyvBQop/kKqlzPCwpaOBRR9qWCkvbBk0AzqKlhD5I4+oCyRgWjSHBrUNiqLgSJLAxKOxE/tqeC2lr2IIdjpAFUN/kdagRVBAVOtCHG6XhQ4iZo4fIzgyLPRYon3UCZDRtR4kAMKLRpPz5E9DOAUmc/jw3XE0G1416hgssvE9S74CNEeNcWlLx0MBY45/qAopd6hAM3KoO653+OAI6pmaDyhR4r39XioPj5H6vdw/5mUP4CdxTOtfovwMD4s8p2vgIgYbbNambtZwQ0NPormGN+CqBiP7tqHUwAbKz6UamOVgCELHhTnV7XNgBK+qxSpBc9zICWdW0K9HTkF8DMUm9V536/L4Cc2Vcozb1eJkDQTkHK8rKeF+BoaqBLSS7UNQOedg5RDvvWioCryYvtSvFxWR7A19JH1OHt6FTA2ep3lMB5sLoB0NZnfIT0hUzNCbhbeK1d5sJ2dbAA/ubf6JS1yJGxgMT5Njol7M7UgoDJibtdcvVoQSVA5wILQqXp8aL2XoDS2Xu+lqG7fh3NgNfGKscl5+r4koDe+aYGyYp1Zb0cgOMW38BQ6bBfmNrRCzDdu9EJp0S8WdwkDhA+pfbGDzLwMrBuTsD7L10XPxfZp2NTuqYB+lsqDz5oE1D42fkNE4xAhibf4Sdt4gi9uLxPWRPQo8l31PpXLo0Lv7puULWiBqDM1LZj1r22a5Dz9sFFo6vkNwORZitRZ/iaS1ZNcARd3r10QKeCJiDZON+645bsOBwSxp/11ZVtP04cUK18lAVI2BBfonPzXiOnzV+75dC1ly9fWq3W9197aLVan798GXnh5NaVi5dMHfdHw2oVC/1lBN3/uv91/+v+1/2v+1/3v+5/3f+6/3X/6zwHAA==;" vertex="1" parent="1">
          <mxGeometry x="840" y="740" width="142" height="142" as="geometry" />
        </mxCell>
        <mxCell id="59H46sRm7DmlmpqxXPBq-4" value="" style="shape=image;imageAspect=0;aspect=fixed;verticalLabelPosition=bottom;verticalAlign=top;image=data:image/png,iVBORw0KGgoAAAANSUhEUgAAAk8AAAJQCAMAAACgmXASAAAAk1BMVEUAAAADAwQDAwQDAwQDAwQDAwQDAwQDAwQDAwQDAwQDAwQDAwQDAwQDAwQDAwQDAwRGrktDoks/lUo7iEg1fUcwckTOHVa/JFKwJk4tZkGgKUqRKkcpWz2DKkN2KT8kUDloJzoiRjVbJTZPIzEdPDBDICwZMio3HScVKCMsGSEPHxwhFBoKFRQWDhMICw0KCgwDAwSg/CfSAAAAEHRSTlMAECAwQFBgcICQoLDA0ODwVOCoyAAAHz1JREFUeNrs2EmOpDAQQFEgGQwE+Cpx/9P1oro3pZSqc4CkpPdOYMlfYYUbAAAAAAAAAAAAAAAAAAAAAAAAAAAAAAAAAAAAAAAAAAAAAAAAAAAAAAAAAAAAAAAAAAAAAAAAAAAAAADgGrqxrPFlKeOtOUnbT2WNiC0zM9bp1vCb3KYlav5VI+apb5t2XGt+E6U/vKVh2fK7fe6ari9zRP5TY9HZFQ1LzTtq3leX/sCYxjXzvnr/MEPDhXSl5sP2qT3mMEvNh9XSNlxDu+SXK1zi7Ws0KerXmmpmXuQSuyWfV716n9dFvm6PeWhfWiDnqPm61Yj6sKHmu2xT91xM857vstv1PqMfyxyx53utffOoMfK9toi5jL1JdZa+rHseZRsfq2nPo9Qog6gO1k2RB9v6R2o62DZ7AA+MacszRNf8jz7yDFVSh+jXPEstzY/aOU+zjQ3vNUSeabv9VPeeT/HZeQV95NnKVYZT/mHPDlsjhYEwALvXnnfd7taJiR8CQhBCCEHC+/9/3d3WvWtTdLuja91Cnk9+c2BedDIZvORv1Jb3KcsddsWUhyM2cMhz1IYry+Wqqf6VFbbxq8gWe8JWqvLOCsI+T1EL7Z6xobFA7bGhYw7UIrsjNlVyCsqBunc37F5vTqwHT7m0IO/NXzEH6h48gyt0rTrRxke8p+hMmh4M5YI4hVbSQKXZdkark9b24DoU2VeN4k7SO3Xr8J+gN8qyA8WPUzQ1vQn4x+ma3lGevxnLZnkEU0cfibbHoKa5XSznxCkakbwPA68FfQSuvIea5wVMhgZj0XGUaiOu9cg/2TlBiR4nVtIID6Zjkc3wGwvzlCaqppQMjMUm8++rKaUAwNU0RgRw5auXGXYVuKKmcU0P1FONtCRtxCXV6UxV4qLY1cKeHyV9IIGg6FZxwkuRsZXgi5LGibaZamUvhjnrkz/MQ4ULek0n3VQRUtEEjxkei4zriE9578wr5wNeOWIYAuXPzyZi2v7iLB5bGpghTgwSr7w1plFKNcZ0vsdn9kXG9AOXRGdUTQmpbURHLCICns6Ew7TDVcO3AaCImSfXSkoJZRwuqYqM6ScmBSNpXE1MMhnimwi+2CRzd0s8UtC4xsa8Mlj/dBetpBtSbZLHAK5QJyHQdEM65BPerTxPrglXZcFjaVUq5B35bRwwwte0thYcZqN6nopseZ4CfQGN62lan8mXwmvlydN9BUpTztN3scn3aaDvKU7U5QXUWnlCELSyP+3d6ULjOBYF4Gxkw46HpWRjExOcmMQ4ju/7P91MTXW1SeFF0pWcQJ3vZ3cXUJ2D1itJIVCv/+nDC8bjRizogoHaMWZ2Zu1w0sWMGV0yUAeqXPIH2WEDz5Cx1udoaj3h7kjtTqa+071WOzkAVR7Ve2sfbLzvXh7/w/dA7X6Y+B7Pr4fWv88LNbgdgKqlxhri/ZH+7333xG0/XqwOnu5+vB46/zqPKKiz3+F17OBXRw2Or7w25J2ane5Y7dJL9bUPT23FDw08nJnS4FCDY8uneV4a9/Z0Z6XHYyT1rGygdW/7DSdcjJpo75o9HchApF6pyYERJum97UdC89TX8bu6wVHzeahda3Oi0d/c6zV4r6fzCuF277hmxbDhijEcvt+dHTa/Mzgk3zFqmao0dXjCAWHjxh6jhagSVQ1VFB1NNU/3L6fzNDFWVFfo7bTd8OqOHg70weFRvfaI3zxVwa7SxJkNeCj1tbAIdZStb6xJFHcE9cBK0+lZbjKAwZMFQ489Y386MhL1Sp8dOGki2YHcEYfNLZgaKBa5e6H6RGn2Ok+MNL3d8xe/RgNgHkpgltbdH+ij3T1rkVymgak/InqUj/IzLmW1waNGd0rriMfzQzKMz/VN5ZsqftfKG+4T63MLT/kY7t0rffQu+6cftLu7+zfO0Zx3IkKtSn9nhNXP4T4e6aNX3XGxZCyeTzWHiOXhOjEb5iYPA9y96gxmdloLFfeHmhsOVJxwuUpfeXp/eTucDi86h21P6k3UM517YzROCh52h8Ph5Q3FT0bNDdVtN9yg8v4gkUE696L8Xeig/xO/oFrFpDljXifTcpyeunsu5XXUhyNnoHfuEe2TSXMDm7Htt2bu7hRHxo+KHeTxgXUdBsZPJk071wn4fd690Tzd7ZgD8XM/kCfbFZrPhm8sOT0w8tR1ueqzjbPmqFfRNZTYjuXP856M5enhVBNVjiPuOjTKMzeAarmG7pmRp5ac8k8QP2C/xSxHppyNP4jaGcnTk/Gfc4flgh4WNB/MXwywk14veJKN07OtM8o3AzB6ZOrdwj2CO/Z65lPNSw1MB8Jw3DCPf2mlXAB2kivUB7k4PZhIPMpVjFtKFvvyp3k7ycKRu77i9IByOvNump9p4XvoDtS9XF3Dk/mroe5PhO7OPK/HQEltyB76idPdO27qsWFOPQZK6sDUYz9xQvGTFSPqMVBPMvUih5qvYT5OePnOkmXjMzw2AiUzhvlhPU4PR1wkZsvIowbPhgLV3Oq9S1ydefduPE4/TniY0555y7tz5gN117CG3hiag/E4vaJ0/DK39tDxwXig3s/i1B2o16Y4cfaqcQ2rTRPb7zv9qDvIfreTefTuh+k4PZ8I99JZtqBmr8a3Xn7IvKZ/+vF5wH66N9fXYSfYJpcaHQ1uDlexqO7QaB+8vZtewTjiEWoG7rU9x93LnYV3LQ6vR+p2en07Gi+juX85mLyoZzz5BUeKz409269jHojpyfKTLe5woGQyd1ZUWd3OEKqzQDHOunBWpPt/+PWdPxa/WXr02WqJ9YYqUAY+RIWzBIxnqW2ModzRQNpwvqImqxnmiC2VK/cmnxInfe93lh+gHiukyaM23gIX3DXeBXXo6WVz5uNl/LqngayZR128OdooidJfvjfS9Gj7JUdnIGfkkAwP28qDwdL6R3l3JC0v1hvJuWbj5DiL+f84zorOOej0pl11UHwPpONgdhCnPXwaLs8nc9OzzExmtx5VPCy2e/YD9U4aHqxPMl2pvs6lSv3KwM0tzoV2buOdHi+cJ+txoqnigsp81Bi6JfZvfhtZH7/c00Xbp8eGOHlqcVqOWv9DB4HqelH4cG99xYBR4sB+sXiuEidvMugwR6BqGii1Z1H4u/sWSxw6CmRWQ4UN89uhTPhQjt51f/TJQKIeL7f8dL8jzmPmrtoge+yigLgq/W1w2j2wR+N6Dvw0nVjvayxU25uhi5LPnybU6v35vvfRE/8+hR9v1MIbyW9tThV+M1GS/tOCOry/PvZfYHC84z6fz+ntht4f/yl95jrzyR9jKBQR/+RSt8MDowCqx3KVu+e3zgwv5X/HFoN/SO0D3+A54p9GnqWP9404nthbv9pVmaNPi+jUxJsNKnOsk/80trPCuCOeJ8Z0kjV4Gjif9vgkmzsXQ/KfphY+27sdcT0x2ifOW+aTz0mR7D/HaKDkAvWocSaX79l8AzVW2DQYyeTpfPw9RwMlFahXxv0TDLs71VaRdKd2lVFNR0aNztMz9HCFolSgnhl3kTMcH02O2byxypbBRC5P5+mZ49aWX6Ze1+Fd5TfIe2+iHt7141RZ1VRIfVpYn9wsVnXFVEO8IFstx7U6PdtME3sbsftEuztSmu1O6/LUUJwx/PQPF4O/3tChdsenu+5HVU9k3OlVZs/n6UitlkOl/QJv2JSnym3NHvAEHd4fnb/2BvHD8ztZcuiI8v3rydT5E7cajXflaVQN8z91lzidUFVdtEfq6b42S7sjWXV4fmjK8Utnjp2R6oNu0+Y8VVY1601L1EF9MPdIwmH38vT428vL2zv14/D6/HiW5scfL4eT0cNxE/plKJMnpyZPNxhA/VFef/UOvxypYuzw7ryassnnaTaoDPEozNdLVMVMmmrmZyr93aRmADaA3+b0fUz03pucyuRpUntaZolXYf7k0HexHChaVTHsytNwVbv9O0cdeU1J1PfgKrcS9MugO08Tt75+boI8fTL+HoHyRgMbeRpNqu2Wz3srE1T9ftNAeeOBsvrlbZWahRFqoGpM6Mur4qSgfiKn9E2Qp9rjZF/f7dB+nm4GyNMl41Tsk3Xki9+iKEkzi8Nx63miBfJ0qdFTsV37ok6U5LYCZT1PtESejCwXlNk2iaOf4mRfUpdiE4gWfpyRhCzLtvssy0pGoBjjcZkB+QR5Uu7syjT2xZl1Rm3SUHQKtiW1KZJQVKJ1kikFir9eUGVkeLOkf7lYL+DFab8WNTbUpEx8IcWPC2qUiE/8dVoaDpQrsf5UXYZYV+s0w3rmmVtqVSaBqJfop6myKaleLOp19pO3AxWO9H7L0CWqO82yQJ7k78coYtHIL6lGGggl/pbqZKJRkBrcw1vI7wcPvdrEOqgvkD04VSaizb4mf5FQFub1zZN2oqYDeVOFepVF7QCKkCfJlYLUFxWpDm/rCx1b+qQjl1FuaKF8rFBPN6Ga7ExQTyd3eU8RqcagXAtNUamUp2rgxR+T0y9D3TwtUO9bN3jSaWoyOpMHQluQ07lYo5usLJSnIzcSeRrX5WmF8wh1m8AaTY1PZ3JfMPg5nUlFt9REmeas87xUpSZPY8J5qX+tqEERim4xI06d6SiFhJiarFSv0PaGenla4jxnbd24RjYKRpzq5PRRrDPuqsxVf6mmWnkaehg+dW7bZb5y41Aw4lTf5RVCRljySjWrMaSrlac57sPofHwjFRXZ1cxQGBCU9EHCC9RSscOjiUaehh66u663N3KN4U4ijNjQRyEvUCPFNRNXI09Twn1iHc1T7gv13k4Ykmn8JCGvgapCMVfP0wr3HXY0T6Wv0SrEwpBIo+MVMa+BqvblxnJ5qrrGGe5j7WqeQiHDLzQyqDxnpI2QsmU2UEv6xZXN0+z3hAYX2nc0Txudxce9YGiNxlpjpaEyVJ3oLjry5J63Rw7eLOtYe9rrLD1SIoyJ6EwZqk8MKzPF/xlVMia/jKX+lDuAwYoxeErp3NpknrQCtWYukq80KhOmhLWnf91I1kRKFfpGBvOkOd3c69xmX5moL4NO8cp512g8k55OWezv9AIVlLwyg7lqqcuU0Nt94FGNSC9OlApjNqQZqITX4VVXFrljhaoEIg+FBU3dXaoZJyqFMbmZ3Wn1oc1wpVDdOVzSPzwMnhq7u0ApTrbWM3UDFfOqDAZjT/pPTVaE5807Z3epdpzMLWjmpB+ogj5z9Erp3Un7faOIk8RiZqQWJxsrmltOQdaGauiezViOJdLk4cxd8yGpghEnQ0PymIgRKJ99PevIpYozHX4eN01vqbLC2Kll+LRllGubCVRCZ5QXNvecAVQ1zq4485tR9e8mc4c+crBr95ursRHsp9QqDwSLv6dWZaTT4d2qTnw9+sPK+cml37CM+ZnGnN/PqUO5EQzrkrrEol3AWoGqmigZLvq6ykR9RB0W1C2PhKYoIwmpxgxvoGzsUJcV5nUf3SgXqsQlSclioWGdkZzMVx7gTQbqJg7SpGKuulqwJWlFEgglwaagM/qj8g0zT5XRwqMGt7g4TOaUeftZcCV5EgpJ4SYnNRvF1fW5diO+rImUM8N2nVR3VzJGyjXK/SbszlJakLrMlxyQ848KjGdL58M8bz7BCoHsMc6sZRqvK0uTKBIVxqXRklcr1F9XxzSeTCZYCFe8oidrbpy4iizLtskvWZblxLb15fKEi1IZeIXjGaNx6l+xlsoTDsfZNyb5PG1KulZ7XzpPtBxA708nik+igq5YuZE5KYyrdy91/Wr4ecX6yuVR9/oT7ra0bEUNtn9eoPsFZEHr/Ysoe7NuSo3Cr5amn9Kg4xAertOxaiVRD7K+0kld11sgUUmEBqpX0459kv/J5N+120S/X5vKyZAiq75qmpOUMv35R+KMiNBA9cu18K5d9VAP1z4OTLyTh0XNvozJgHIbNladMBQbn1F+UMEUrz9LYitilWdV+F+Wv3SB+8Gt8QykSfdZFcazQ8xE4UJnS27YS9KMQyq8kwz8xXpvAIYtiGUfCBlhQWq2QkqCEfmVWRFDGStcS68iZjyTVw+7wr0YEUMeCnkpoziuhZ+iw7seY5dZHmIlUJFQERODiymeQTce6UuFopzkxIx3F6XhribzpsSQCFV+YekLhyV1wjbedccpFupCkpAJgUB9Raw4bYWODXUqA4FAfUWsOKVCT844mtkqJASqzXVvA+dCU8jr7fizPBST2zH0SAP/3c2UsVTQbkuY5TW76qKnUGgLGM1Th5wYXJzH41hwVwosNVAR62FY7LxcyIQ3eOKIqEUhODbYGr6M4YrX27EUrZM7lozk4AT6d+ntOloRX7AExHE7AMNLBUWapAVVbLx6EDBG48xyqCJN9gV6PNOc9sLdTcnYZ2F1eBvB5JfdlaRxgfNTvVT4pr7E5kUh2FLGyIzRQJXhnxVTuD3cZkVmLLXWHFt8QKMUbH4p85PHGJKbM5UISqbxkfP3XDLBt5X64jEaKMvN01ZukSgRBtj84oHcSukWDZTV0VMmuXcRCAPy5uE4315uETZDA2WGI7UIsGnuNPiy5iaEL5bLql9iimdv7WktOcaJhQmpzTyJUm7quEYllAlLyYc0C+X1a/6kXhixl5xH7HFFhqWyp9KXbEMy8QXyFEv+xvglrsiws1iQyO6yJV8hTwHrr0izAci7ld2RC6lG9BXyJArZn7ygGu4ApA3lWx2qIb5EnlLZdY4YHZ6F7q70ZSf1+dfIUyL9pQt0eOa7u0T6tzy10oBUAmFEJD2RiDHD41H4FJPa5F3/embtgDxVKZ3BnouNJ6fX7aue/P0We19f/jchQVkdx1xhyTuqbz+ufT/4J/mdwQCXanI4CkvevrU8he2H2Pky+Z98jxUDBonurtIQPb41Ncj7z1NMNQagPXyKFfIkzNhSE2t5CkQDH5cZ6JspzdELWx93Tk0iW3kSjXKsQJmsLShUPxU+nxol/edpiwG5Nldl+CQyS+OnmBrl/edpjRVNbfRZwhjVcuqTrK6Qlwp58lGkafKq8aj3PPlGL6fjzyRKTPAMTu8ClTzFlrq7Sm4psYqbP7hcTMaMmP+jE1ubd5XQzn6waLbFgoG53ZZc6YPfm1sct7lEvlHKU4I8mctTpjSwKARfSu18K99CNItxCk+To5YnKx92QB0SwZYr/eAR8mQuT3u1PK2tN09U+jYmkBHy1EueErWWJOU3T522gilGnq4xT5GN21Uy6hZYWC+NkadL52ltoYJyTRIydnen9nuDu6N7GT8ljOk8772yWHDEip1ohA28XuZ3e/PT+ZSklL7x2zkz9HeXzlNOdRJub2e7x4tUr9VbI0+aHKX1ceNtR1D2ccV5prpMmiBPmpYq+3ch46PmP5gfmW4DI+TJuLnK7+3G9HQ+JQVlKPQUyr8GGfJkME+R8sefMeJk/YW9hCqSE9kcJzoN3sS66ekRgw0pyn2jxQulaIIDLibr6VKNjZGQsShkNVB+of5DR4R6OoOXPxUaASh9RmdnM1CZRiXxBgc6+7hdZW/yk05JSxkyvo3sAGqP8wjaHPnNDYNNh5+TpjI2mFpf1Cqx3aJtIf17uzbXF0Ul6dsy4iT1i7PGIwn6ptITn9RUX+RviSWX/T4ZVRQ6vC3utNc3lv299anCWjaICuJKfNEtLKii0uEVmN4xePRZpju9zwLRIcjIgCIWHfyEJMSy3Z03ADm3kiszGUnZ+q1pSqliM1Fxof3Mf4Z3qTmmcjVyAUkqt4FosM7IoCIJGGlqXBqJ8EICy4jqRJz1oiz2a8KUlmTaPq6JVKTyjdKa5gnDJxZXZofXL0lJvl1XfWa4TjKypEg3kS/+EUTJvqSKRt1nhCfwmGYyI9WEdORZluUkq8ySTRQFvyIYRck2K0lSkf1PSRoSca4gXO/LM5L4xfVLsqtM40B8Fsb7kqwqA/FRQujuuJzumqbUcphC0Wydkk3ZWX4J3R3btHOouiaL8u61pE1B9mw+NsN4kdoAryNQYUnWZJGQERdkzfrjLjWeK+ObU729X+3e2lFEQlZcki3xx11qHA1mG3qNa5NRZHP4kggF/pZsyda+/8/fE6W+BiyJjV8nwC9z4cPz5rYaKPtSjWLwjOxB82TOnHoXCx0pWYWtYDOGK+pXGQs9MVmDyZ05N8Sgd6zgiwQKa09abqlPkRBfJFArvBx8/UPy2NhbeRiMX6sJ9WZr6jZM9HZXbE49yQVTdYYcS09XbEm9KAPBFVE/XAyeGIYuVazv53+BIZSHsieWmeyJg3UgRBBttGrdCsHAqu/bbyLxU7gpsJLZhzFJKBNRWe97Wypg1h8XG19UNiWdw6EWGzzqVIS8E3WZMMIv9U7rNZR0ocrXilude8CDvfrSE1/C2NypCRTOBF9mABUybyQohSEBVbSOLEcYPlk3og4Jt9RtK0zZc0tAU/oAV6pY4Xb1dtxSt1CYEpOUva/dwmHxiW1BrRJuqVspjAnYi10ptXIHYLnD87lrjHthTsEtiwnR3VnnMtIQMw4gWBlA5UFHItHd2TZlzPUl5uCRMCdhXS5dtag4JHWpMqhAcAMVCnPW1C4VXSIUPlm3YO28hTm1EgZFunGqYDRu3Yg3mPbzK8lTKiTkGI1bt+QNpv38KvKUSg/pcaPKpRqoNWOntuc8pUJKgubJviVzchaWF89TJuTEaJ7sG3lUzxeMQPWZp9xX+hJ4PNGuOTcM617WCyL+O54RjiEwcA+fC2lxL+uZ/LPHPgrp+nDD7qzSHvZbUu1pQ4Vwm28fbtmDn8z+fnBuILI4Ys7A3XUxUN9dCGN8A4mNsNPCwO3xAqEgtF9Px39TP0Jv1xOXPZhOrNf78vOaoE6lJwv+YDqz2uH5Jsb7KTaCezLX3cSoBKXNFYONicN9GdaeGLgDqNxEgVImzChM3LSB4VNfJlTDNzHEieyNxjdCTYQbn3rTsFLI7/EyYYBfmPjKCVYLerPSH0BVNgqp5CchFIoyXOfbm1sjk7O8/lAoV2hkKcLHpQX9mRtpASLGErb1mMYoLejPxMxq5N7GDXWpmS+6x3C8R2aOiwcWdl1iMwulATbv+uRQjdhMW1KGxs/dxYbqpwZgx8zMamRAhgMVlob2cQrc+dSnsaECy9RsoNaloeYpxrmWfq1sNlBURkJHbOweoAKPSfVrYaiBygzeQ741Vkcc45R5z8ZkpoFat1wdpybIqUEgVBXo7vq2IjPbJSU1KNdCxaY0d01ZgjufejfrqqjlP46RBUJWlBu8hDoocedT70ZUa2v24opALgB7aqEc8T3ufLqApaFDmSW1ScPuRGZm31xY486nS5hQrZJRV1crj33RLNgUhm/lDEpcqnIRjpn2YEOdsk0o6kRJbv6JoRyXqlzGxMwrBxFJyZI4CsRvYbTZZiRFqElx59OlOGYmVGRVIZTEuPPpYiZkJFBkVaYWJ1xJd0GOkUBl15OnGBf6XtKImsRfMk8x7hu/rDk1ib9gnmI8h3Bhw5WBZZ/Ccp74Cxcedu56MiFiFwiQVbmQ46dEuICVwf4LHCFj/ckcuViHOZ52vQZDl7vVsSW7YslqF/R2V2HsUbM8Ygyf+htABRnekroaU2JVnGzItirTne9l4wwnm/1nhX3JA058OhUPflLiXfzrsqR2aWA3ToynOINtSa1cDJ56N3SpQxb73cNgPtVS9HhPHTwckWJgBKrT/lOk/LigvmSfEhXE+5K6eHhb4yJGHknI98kmikIhRBitk4x6Ve6TKAr+/72jTZIVRIQ4Xa2xR98QilRqfIdA5fskiaJI/MuPonWSZDni9F3ZClS+jUPRLIzTnJShs7t+FgJVpmtftKmG1ojTtzNyyah0LeTFezLKRZwubuiQMWXiCzVBSuY4WMa8BgsypEqT5UThDc6rNvXIgCwQeqKCDPBQP3c1xi6xJUKbnxKbiz2WazInplhwpNQN9SlfCbOJ4t9nz+FgXnd9Zh5p2xt4XUqbhyXxqzRckK5AcEWkyZtjleBajZY9N0/8ivQlxuHXbLT0GHO7vkdQ3gJpunbD2YpURYIvIVWrGXq6L2Gy9K4+T94SJ6K+kJuld8X9nbecomn6asazW4/k5IKvJEnOHC3TVyVbHhUKrpjkzAbwhUkGKuOvZ6Ka968wdHsZQaWoIfhLDJdXsx+8wjbddzCzHqgU5Zd/k4lHElKhyd+jJOXvIldjnocWyzNXWCT4TmYkoUyEMn9LMm7R130vcvV2eSTUrAvM6/5Sc5KRBkJelJGMBRqn72jkaCSKnyYXI6fv6mYle29TtzhDMe9fbzj3SEaxDUWbdVqimBeq5fJuRboORJ0gTkuSgzT9BRSKzIt9so6CKklRnGSl/EEDFPP+HapeT1qJYyvQYuqSTS5G4X+b8YJsucUKwd9oSix4BxFYlyWioheULkvENU7AXo3CDZhg6W47viUWCf52Iwd9HfR8cRRq5kDe6Jb4Vmic4LfJin7BrWBgxPSfROFWMDCVKKQJTJo6VEFZCrCNlx4pcXGRE7Sa3pKsFa6/BAk3yxV1cmYIE8gaTZcuNfFwxRxoGN/Ml45zFiRnPpugXQIAAAAAAAAAAAAAAAAAAAAAAAAAAAAAAAAAAAAAAAAAAAAAAAAAAAAAAAAAAAAAAAAAAAAAAAAAAAAAAAAAAAAAAAAAAAAAAAAAAAAAAAAAAAAAAAAAAAAAAAAAAAAAAAAAAAAAAAAAAAAAAAAAAAAAAAAAAAAA+Nr+C1NGLOnd/l9xAAAAAElFTkSuQmCC;" vertex="1" parent="1">
          <mxGeometry x="230" y="590" width="229.56" height="230" as="geometry" />
        </mxCell>
        <mxCell id="59H46sRm7DmlmpqxXPBq-5" value="" style="shape=image;imageAspect=0;aspect=fixed;verticalLabelPosition=bottom;verticalAlign=top;image=data:image/png,iVBORw0KGgoAAAANSUhEUgAABQ0AAAQeCAYAAABysRwYAAAACXBIWXMAAC4jAAAuIwF4pT92AAAgAElEQVR4nOzdTVJdV7Yu7Dkzsg5fC8RtgbiVVRWnsqritEC4BSZbYNyCD7fAqAVG1VWxVF0VixYk6gG0YN7Y8sTeRoD2z/qfzxNBnIw8/mGPgcPKV2PMEVNKAQAAAACYj1jVxyGEwxDCw/997C6E8Hn1ldrmbtsPJjQEAAAAgAmLVb0KBU9zQLj6erPld3sTQrgOIVyltrnd5E8QGgIAAADAxORJwrMQwkkI4XWH3937EMLF98JDoSEAAAAATMBaULiaKnzV43d0n4PDy+f+AKEhAAAAAIwkrx6f5a8uJwo38T61zdlTf5zQEAAAAAAGFqv6JAeF70au/ZPBodAQAAAAAAYSq3oV0J2PMFX4kp9T21ys//+FhgAAAADQo7UV5POe3yrcx/9ZP47ybz8QAAAAANC9HBae56+DiZf4IgebX5k0BAAAAIAOzSwsXPfXtKFJQwAAAADowIzDwgenIYTLIDQEAAAAgP0sICx8cPYQGlpPBgAAAIAdLCgsXPf/pba5+9d0vh8AAAAAmIdY1aupvM8hhJ8WFBiunATryQAAAACwmTxZeJYnC18ttGzHIYRroSEAAAAAvCBW9dFaWLikqcKnrEJDk4YAAAAA8JRY1Sc5LHxXUIFW05RCQwAAAAB4kFeQT/NU4esCC2PSEAAAAADCn2HhaQ4LS5oqfMrX9WuhIQAAAABFilV9nNePTxd82GQnMaU0w28bAAAAALaX3yk8FRS+6H9MGgIAAACwWPny8Un+Oi3g+nEnhIYAAAAALEYOCY/XgsISj5nsTWgIAAAAwCzlS8cPAeFx/rJy3AGhIQAAAACTlt8hDDkcPFwLCK0a90RoCAAAAEDn8prw0RN/3eMc/D3lZO2/OzI1OB6hIQAAAADfiFW9Hu49TPc9eBwICvgWRmgIAAAAUIBHk3/rgeD6dN8bPwsEoSEAAADAvK2FgevTgA+h4KHrwexCaAgAAAAwYWsXgh/CweO1gNAhEPpwF1NKKgsAAAAwsrWJwZO1gNC6MINLbRNNGgIAAAAMLB8ZefxlapDJEBoCAAAA9CivF5/kgPDEWjFzIDQEAAAA6NBaSPjw5RAJc3IfhIYAAAAA+4tVfSokZCE+B6EhAAAAwPby0ZLT/OVYCYsjNAQAAADYQD5ecpaDwldqxkLdBaEhAAAAwPPy2vHDl+MllMB6MgAAAMBjaxOFZ4JCSiU0BAAAAIqX3yh8CAqtHlOy2yA0BAAAAEoVq/owrx2fOWYCfxEaAgAAAOXJ68fn3imEJ309hBJTSsoDAAAALF6s6jNThfCy1DYxmDQEAAAAliyvIJ97qxA2cv/wBwkNAQAAgMXJh00uQgjvdBc29vnhDxQaAgAAAIsRq/okTxa+1VXY2t3DnyA0BAAAAGYvh4UX3iuEvZg0BAAAAOZPWAidMmkIAAAAzJewEHph0hAAAACYn1jVxyGES2Eh9OL24S8aU0pKDAAAAEyaa8jQv9Q28eFvYtIQAAAAmKxY1Yf5GvJPugS9uln/iwsNAQAAgEmKVX2WV5EPdAh6d7v+NxAaAgAAAJOSj5yswsLXOgOD+bz+NxIaAgAAAJOQV5EvvVsIo/i4/jf9lx4AAAAAY4tVfZ7XIwWGMA6ThgAAAMA05KvIVyGEN1oCo/mS2uZu/W9u0hAAAAAYRazqixDCfwWGMLrPj78Bk4YAAADAoGJVH+fpQodOYBo+Pv4uTBoCAAAAg8nThX8IDGFSvpk0jCklLQIAAAB6ZboQpiu1TXz8zZk0BAAAAHqVLyObLoRp+vDUd+VNQwAAAKAXsaoPQwjXDp3ApH3znmEwaQgAAAD0IVb1aQjhVmAIkyc0BAAAAPoXq/oyhPBbCOFAuWHSvqS2+eYISrCeDAAAAHQlVvVRXkf2diHMw5NThsGkIQAAANCFvI78WWAIs3L93DcbU0paCQAAAOwsVvVFCOEnFYRZuU9tc/jcN2w9GQAAANhJvo58FUJ4q4IwO89OGQahIQAAALCLWNXHOXR4pYAwSy+GhtaTAQAAgK3k9wuvXEeG2XpxNTk4hAIAAABsI1b1eQjhN4EhzNrV975568kAAADARmJVr4KGd6oFsyc0BAAAAPaTD558DCG8VkqYvZvUNp+/9yGsJwMAAADPygdPBIawHJebfBKHUAAAAIAnrQWG3i+EZfjuAZQHJg0BAACAb8SqPhMYwuJsNGUYvGkIAAAAPJYDw18VBhbnuwdQHpg0BAAAAP4Sq/pcYAiL9D61ze2mH8ykIQAAAPBVrOrVFNI71YBFutjmQ5k0BAAAAASGsGxbTRkGoSEAAAAgMITF22rKMAgNAQAAoGwCQ1i8racMgzcNAQAAoEyxqg9DCNchhDd+BGDRtp4yDEJDAAAAKE8ODD+GEF5rPyzaL7tMGQbryQAAAFAWgSEU437XKcMgNAQAAIByCAyhKBepbe52/cBCQwAAACiHwBDKcJPa5nKfTyo0BAAAgALkK8kCQyjD+b6fUmgIAAAAC5cDw3f6DEV4n9rm474fVGgIAAAACyYwhKLcdzFlGISGAAAAsFwCQyjO2T7HT9YJDQEAAGCBYlVfCgyhKB9S21x39YGFhgAAALAwsarPQgg/6isUY7WWfNblhxUaAgAAwILkwPBXPYWinHa1lvxAaAgAAAALEav6RGAIxfmli2vJj8WUkh8lAAAAmLlY1cchhFVwcKCXUIyb1DbHfXxYk4YAAAAwc7GqjwSGUJzVO4anfX1ooSEAAADMWKzqwxDCtcAQinOW2ua2rw8tNAQAAIB5W00YvtZDKMrPqW2u+/zAQkMAAACYqVjVVwJDKM6H1DYXfX9ooSEAAADMUKzqVWjwTu+gKDerteQhPrDryQAAADAzsapXocGv+gZFWR0+OUptczfEhzZpCAAAADMSq/o4hHCpZ1CUVWB4MlRgGEwaAgAAwHzkS8m3LiVDcf4ntc3HIT+0SUMAAACYgRwYfhQYQnF+GDowDEJDAAAAmI1Ll5KhOKvA8GqMDy00BAAAgImLVX3uUjIU5+exAsPgTUMAAACYtljVpyGE37QJivI+tc3ZmB9YaAgAAAATlS8le8cQyjJ6YBisJwMAAMA05cMnVwJDKMokAsMgNAQAAIDJcvgEyjKZwDAIDQEAAGB6HD6B4vxnSoFh8KYhAAAATEt+x/APbYFi/DDmleTnCA0BAABgIvI7hrfeMYRiTDIwXPn3BL4HAAAA4E/XAkMown0I4Sy1zfVUP6zQEAAAACYgVvVFCOGNXsDirQLDk9Q2n6f8Qa0nAwAAwMhiVZ+EEH7XB1i8mzxhOOnAMAgNAQAAYFzeMYRi3OQJw7s5fGDryQAAADAu7xjC8r1PbXM2p0/5rwl8DwAAAFAk7xhCEf4zt8AwWE8GAACAcXjHEBZv8heSXyI0BAAAgIHldwxXhxBeqT0s0mwOnjzHejIAAAAM70pgCIv1IR88mW1gGBxCAQAAgGHFqj4PIbxVdlikn1PbXCzhg1lPBgAAgIHEqj4OIXx0LRkWZ9bvFz7FpCEAAAAM50pgCIuzer/wNLXN7ZI+mNAQAAAABhCrerWy+FqtYVF+SW1zvsSWWk8GAACAnsWqPgkh/K7OsBiLW0d+TGgIAAAAPYpVfRhC+OxaMizGIteRH7OeDAAAAP26FBjCYix2Hfkxk4YAAADQk1jVpyGE39QXZu8+Txd+LKWVQkMAAADoQV5LvnUtGWbvUw4M70pqpfVkAAAA6MeVwBBm7z+pbS5LbKPQEAAAADqW15LfqivM1k2+jvy51BZaTwYAAIAOxao+yteSTRnCPBVz7OQlJg0BAACgW9aSYZ6+5OnCYo6dvORf0/3WAAAAYF5iVa+mk95oG8zOhxDCscDwb9aTAQAAoAPWkmGW7vN04bX2/ZNJQwAAAOiGtWSYl095ulBg+ARvGgIAAMCeYlWfWUuG2VhNF16ktrnUsudZTwYAAIA9xKo+DCHcmjKEWbjJ68iftetlJg0BAABgP9aSYR5+Tm1zoVebERoCAADAjmJVn4YQ3qofTNqXEMKp6cLtOIQCAAAAO8hryVdqB5P2Sz52IjDckklDAAAA2M2ltWSYrPs8XfhRi3bjEAoAAABsKVb1SQjhd3WDSfqQj53cac/uhIYAAACwhbyWvFp1fKVuMCn3OSy81pb9edMQAAAAtnMhMITJ+ZTfLhQYdsSkIQAAAGwoVvVxCOEP9YJJ+U9qm0st6ZZDKAAAALA515JhOm7yOrLLyD2wngwAAAAbiFV9HkJ4rVYwCb+EEE4Ehv2xngwAAADfEav6KB8/OVArGJVjJwOxngwAAADfdyUwhNGtjp2cpra504r+CQ0BAADgBbGqT0MIb9QIRuXYycCsJwMAAMAzYlUf5rXkV2oEo/iSpwu9XTgwh1AAAADgeRcCQxjNhxDCscBwHCYNAQAA4Amxqo9DCH+oDYzCOvLIvGkIAAAAT7tSFxicdeSJsJ4MAAAAj8SqPg8hvFYXGJR15AmxngwAAABr8vGT2xDCgbrAYKwjT4z1ZAAAAPinS4EhDOY+ryN/VPJpMWkIAAAAWazqkxDC7+oBg7gJIZyktrlT7ukxaQgAAAB/c/wEhvE+tc2ZWk+XQygAAADw55ThRQjhlVpA734QGE6f9WQAAACKF6v6KITw2VuG0CvvF86ISUMAAABw/AT69vB+ocBwJkwaAgAAUDTHT6B3n/KEoYMnM+IQCgAAAKVz/AT64+DJTFlPBgAAoFiOn0CvfhYYzpf1ZAAAAIrk+An0anUh2RTvjFlPBgAAoFSOn0D3VheSz1LbXKvtvJk0BAAAoDiOn0Av7vOF5M/KO3/eNAQAAKBEl7oOnRIYLozQEAAAgKLEqj4PIbzWdeiMwHCBrCcDAABQjFjVhyGEW28ZQmducmB4p6TLYtIQAACAkjh+At0RGC6YSUMAAACK4PgJdEpguHAmDQEAACjFhU5DJwSGBRAaAgAAsHixqs9CCG90GvZ2LzAsg/VkAAAAFs3xE+iMK8kFMWkIAADA0p0LDGFvAsPCmDQEAABgsWJVH4UQ/qvDsBeBYYFMGgIAALBkV7oLezsXGJZHaAgAAMAixao+cfwE9vZDahvhe4GEhgAAACyVoAP2815gWC6hIQAAAIsTq/oihPBKZ2Fnn1LbnClfuYSGAAAALEqs6sN8MRnYzU0I4VTtyiY0BAAAYGkuQwgHugo7WV1KPkttc6d8ZYsppdJrAAAAwELk4ye/6yfs7H9T21wrHyYNAQAAWJIL3YSd/SIw5IFJQwAAABYhVvXqaMOvugk7uUltc6x0PDBpCAAAwOzl4yeXOgk7uXf4hMeEhgAAACzBueMnsLPV4ZNb5WOd9WQAAABmLVb1UQjhv7oIO3mf2uZM6XjMpCEAAABzZy0ZdvMlT+nCN4SGAAAAzFas6pMQwlsdhJ2s1pLvlI6nCA0BAACYsyvdg538ktrmo9LxHKEhAAAAsxSrerVW+Ur3YGurteQLZeMlDqEAAAAwO7GqD0MIty4mw07+N7XNtdLxEpOGAAAAzNGFwBB28klgyCaEhgAAAMxKrOrjEMKPugY7sZbMRoSGAAAAzM2ljsFOPjl+wqaEhgAAAMxGrOrTEMIbHYOdmDJkYw6hAAAAMAv5+MlnF5NhJ6spwxOlY1MmDQEAAJiLc4Eh7MxaP1sxaQgAAMDkxao+ylOGLibD9r6ktjlSN7Zh0hAAAIA5uBQYws5MGbI1oSEAAACTFqt69Q7bW12CndyHEK6Ujm0JDQEAAJg6U1Kwu+vUNnfqx7aEhgAAAExWrOrV8ZPXOgQ7M2XIThxCAQAAYJJiVR+GEG69ZQg7cwCFnZk0BAAAYKouBIawF6v97ExoCAAAwOTEqj4OIfyoM7CXa+VjV0JDAAAApsiEFOznJrXNrRqyK6EhAAAAkxKr+jSE8EZXYC+Cd/YiNAQAAGAy8vETYQfsz2oyexEaAgAAMCXnIYRXOgJ7+ZDa5k4J2YfQEAAAgEmIVX0UQvhJN2BvpgzZm9AQAACAqbCWDN0QGrI3oSEAAACji1V9EkJ4qxOwtxuryXRBaAgAAMAUXOkCdMI/S3RCaAgAAMCoYlVfOH4CnbGaTCdiSkklAQAAGEU+fvI5hHCgA7C31WrysTLSBZOGAAAAjOlSYAid+aiUdEVoCAAAwCgcP4HOec+QzggNAQAAGIuAA7pzn9rms3rSFaEhAAAAg3P8BDrnAAqdEhoCAAAwqHz85FzVoVPeM6RTQkMAAACG5vgJdM+kIZ0SGgIAADAYx0+gFzepbe6Uli4JDQEAABiS4yfQPVOGdE5oCAAAwCAcP4HeeM+QzsWUkqoCAADQq3z85LO3DKFz96ltDpWVrpk0BAAAYAhXAkPohSlDeiE0BAAAoFexqk9DCG9UGXohNKQXQkMAAAB6E6t6tTZ5qcLQG6EhvRAaAgAA0CfHT6A/X1LbfFZf+iA0BAAAoBexqo9DCD+qLvTGlCG9ERoCAADQF2vJ0C+hIb0RGgIAANC5WNXnjp9A74SG9CamlFQXAACAzuTjJ7chhANVhd6s3jM8Ul76YtIQAACArl0JDKF3pgzpldAQAACAzsSqPg0hvFVR6J3QkF4JDQEAAOhEXkt2/ASGITSkV0JDAAAAunIRQnilmtC71XuGt8pMn4SGAAAA7C1W9XEI4UeVhEGYMqR3QkMAAAC6cKWKMBihIb0TGgIAALCXWNWrteTXqgiDERrSu5hSUmUAAAB2Eqv6KITwX9WDwazeMzxSbvpm0hAAAIB9WEuGYZkyZBBCQwAAAHYSq/o8hPBG9WBQn5WbIQgNAQAA2FpeS75QORicSUMGITQEAABgF6u15AOVg0Hdp7YxacgghIYAAABsJVb1mbVkGIUpQwYjNAQAAGBjsaoPQwiXKgajEBoyGKEhAAAA27CWDOOxmsxgYkpJtQEAAPiuWNWnIYTfVArGkdomKj1DMWkIAADAd+W15CuVgtF8UnqGJDQEAABgE9aSYVzeM2RQQkMAAABeFKv6PITwVpVgVN4zZFBCQwAAAJ4Vq/oohHChQjA6k4YMSmgIAADAS6wlw/huUtvc6QNDEhoCAADwpLyW/EZ1YHRWkxmc0BAAAIBvWEuGSbGazOCEhgAAADzl2loyTIbQkMEJDQEAAPiHWNWrCcPXqgKTcJ/a5lYrGJrQEAAAgL/Eqj4OIfykIjAZpgwZhdAQAACAr2JVH+a1ZGA6HEFhFEJDAAAAHlyGEF6pBkyKSUNGEVNKKg8AAFC4WNWnIYTfSq8DTE1qm6gpjMGkIQAAQOFiVR+FEK5KrwNM0I2mMBahIQAAAKvA8KD4KsD0WE1mNEJDAACAgsWqvgghvPEzAJPkCAqjERoCAAAUKlb1cQjhJ/2HyTJpyGgcQgEAAChQrOrDPMXkWjJM031qm0O9YSwmDQEAAMp0JTCESTNlyKiEhgAAAIWJVX0eQnir7zBp3jNkVEJDAACAguR3DP9/PYfJM2nIqLxpCAAAUAjvGMJ8pLaJ2sWYTBoCAACUwzuGMA83+sTYhIYAAAAF8I4hzIrVZEYnNAQAAFg47xjC7DiCwuiEhgAAAAuW3zG81mOYFZOGjE5oCAAAsGzX3jGEWblPbXOrZYxNaAgAALBQsaovQwhv9BdmxWoykyA0BAAAWKBY1achhB/1FmbHajKTIDQEAABYmHz45EpfYZaEhkyC0BAAAGBB8uGTVWB4oK8wS9aTmQShIQAAwLKsAsPXegqzdJPa5k7rmAKhIQAAwELkwydv9RNmy5QhkyE0BAAAWIBY1WcOn8DsCQ2ZDKEhAADAzOXDJ5f6CLPnCAqTEVNKugEAADBT+fDJrcMnMH+pbaI2MhUmDQEAAGYqB4YfBYawCJ+0kSkRGgIAAMzXpUvJsBhWk5kUoSEAAMAM5UvJ7/QOFsMRFCZFaAgAADAzLiXDIgkNmRSHUAAAAGYkVvVJCOF3PYNF+ZLa5khLmRKThgAAADMRq/o4hHCtX7A4pgyZHKEhAADADLiUDIvmCAqTIzQEAACYOIEhLJ5JQyZHaAgAADB9q8DwtT7BMqW2MWnI5AgNAQAAJixW9ZXAEBbtRnuZIqEhAADAROXA8J3+wKKZMmSShIYAAAATFKv6UmAIRfCeIZMkNAQAAJiYWNVnIYQf9QWKYNKQSYopJZ0BAACYiBwY/qofUIT71DaHWs0UmTQEAACYCIEhFMdqMpMlNAQAAJgAgSEUyWoykyU0BAAAGJnAEIolNGSyhIYAAAAjilV9HEK41AMokvVkJktoCAAAMJIcGK4mjQ70AIpzk9rmTtuZKqEhAADACASGUDxThkya0BAAAGBgAkPAe4ZMndAQAABgQPnoicAQMGnIpMWUkg4BAAAMwJVk4EFqm6gYTJlJQwAAgAEIDIE1nxSDqRMaAgAA9ExgCDziPUMmT2gIAADQo1jV5wJD4BHvGTJ5/9YiAACAfsSqvgohvFNe4BGThkyeSUMAAIAeCAyBZ3xJbXOnOEydSUMAAIAOxao+zFNEr9UVeIIpQ2bBpCEAAEBHYlUfCQyB7/CeIbNg0hAAAKADsaqPc2B4oJ7AC0waMgsmDQEAAPYUq/pMYAhsIrWNSUNmQWgIAACwh1jVFyGEXwWGwAY+KRJzYT0ZAABgB/ngyaULycAWrCYzG0JDAACALeWDJ9cOngBbsprMbAgNAQAAtuDgCbAHk4bMhjcNAQAANhSr+jyE8IfAENjBl9Q2dwrHXJg0BAAA+A7vFwIdMGXIrAgNAQAAXpDXka+8XwjsyXuGzIr1ZAAAgGfEqj7N00ECQ2BfJg2ZlZhS0jEAAIBHYlWv1pF/VBegC6ltokIyJ9aTAQAA1sSqPgohXJsuBDr0STGZG+vJAAAAWazqs/zumMAQ6JLVZGbHpCEAAFA815GBnjmCwuwIDQEAgKLFqj7J15FflV4LoDcmDZkd68kAAECxYlVfhBB+FxgCPbpJbXOnwMyNSUMAAKA4saqP83ShtwuBvllNZpZMGgIAAEWJVX2eVwUFhsAQrCYzSyYNAQCAIsSqPsrThW90HBiQSUNmyaQhAACweHm68LPAEBjYfWoboSGzZNIQAABYLNOFwMisJjNbJg0BAIBFypeRTRcCYzJlyGyZNAQAABbFZWRgQkwaMlsxpaR7AADA7MWqPgwhrKYLf9RNYApS20SNYK5MGgIAALMXq/o0hHAZQnilm8BEfNII5kxoCAAAzFY+dLIKC9/qIjAx3jNk1hxCAQAAZmnt0InAEJgi7xkyayYNAQCAWYlVfZIPnVhFBqZMaMisCQ0BAIBZsIoMzMiX1DZ3GsacCQ0BAIBJy1eRz/PXgW4BM2DKkNkTGgIAAJPlKjIwU0JDZk9oCAAATE6s6uMcFr7RHWCGXE5m9mJKSRcBAIBJyO8Wrq4iv9MRYKbuU9scah5zZ9IQAAAYnXcLgQWxmswiCA0BAIBRxao+y6vIwkJgCYSGLILQEAAAGIUjJ8BCCQ1ZBG8aAgAAg4pVfZLfLXTkBFic1DZRV1kCk4YAAMAgXEQGCvBJk1kKoSEAANArF5GBglhNZjGEhgAAQC+EhUCBhIYshjcNAQCATgkLgVJ5z5AlMWkIAAB0QlgIFM57hiyK0BAAANiLsBDgK6vJLIrQEAAA2ImwEOAfPisHSyI0BAAAtiIsBHiSSUMWRWgIAABsRFgI8Kyb1DZ3ysOSCA0BAIAXxao+DiGcCwsBnmXKkMURGgIAAE+KVX2SJwvfqBDAi4SGLI7QEAAA+IdY1ad5slBYCLAZoSGLIzQEAAC+ilV9licLX6kIwMa8Z8giCQ0BAKBgsaoP81ThmbAQYCemDFkkoSEAABQoX0J+CAsP/AwA7ExoyCIJDQEAoCD5uMmZS8gAnREaskhCQwAAKEB+r/DMcROATnnPkMUSGgIAwELl9wrP8hqy9woBumfKkMUSGgIAwMLk9wpXV5BPvVcI0CuhIYslNAQAgIWIVX2apwqtIAMMQ2jIYgkNAQBgxqwgA4zGe4YsmtAQAABmKFb1cQ4KrSADjMOUIYsmNAQAgBlxBRlgMoSGLJrQEAAAJi4fNnlYQTZVCDANQkMWTWgIAAATlQ+brMLCt3oEMCneM2TxhIYAADAha1OFZw6bAEyWKUMWT2gIAAATYKoQYFaEhiye0BAAAEZiqhBgtoSGLJ7QEAAABmaqEGDWPnnPkBIIDQEAYACmCgEWw5QhRRAaAgBAj2JVPwSFb9QZYBGEhhQhppR0GgAAOhSr+nhtqvBAbQGWI7VN1E5KYNIQAAA6EKv6MISweqvwPITwWk0BFumDtlIKoSEAAOwhHzVZfb1TR4DFs5pMMYSGAACwpXzU5DyHhY6aAJRDaEgxvGkIAAAbsH4MULz71DaHpReBcpg0BACAF1g/BiAzZUhRhIYAAPCI68cAPOFaUSiJ0BAAAP5+p/Bh/dg7hQA8ZtKQoggNAQAo1to7hauJwjd+EgB4xpfUNreKQ0mEhgAAFCe/U7gKCt/qPgAbsJpMcYSGAAAUYe2gyal3CgHYktVkiiM0BABgsdYOmpx6pxCAPQgNKY7QEACARREUAtCxT6lt7hSV0ggNAQCYvbXLx6uw8LWOAtAhU4YUSWgIAMAsCQoBGIgjKBQpppR0HgCAWRAUAjCw+9Q2h4pOiUwaAgAwabGqD9eCwje6BcCArCZTLKEhAACTsxYUrr7e6hAAI7GaTLGEhgAATIKgEIAJMmlIsYSGAACMRlAIwITdpLa51SBKJTQEAGBQgkIAZsKUIUUTGgIA0DtXjwGYIe8ZUrSYUiq9BgAA9EBQCMCM3ae2OdRASmbSEACAzggKAVgIq8kUT2gIAMBeYlUfhxBOBIUALIjVZIonNAQAYGs5KDzLU4WvVBCAhTFpSPGEhgAAbERQCEAhblLb3Go2pRMaAgDwrFjVpzkkXH0dqBQABTBlSPGC0BAAgMcEhQAUznuGFG8lppQUAgCgYG6R/4EAACAASURBVLGqD9dCwrd+FgAo2H1qm0M/AGDSEACgSLGqj/LFY0EhAPzNajJkQkMAgELkoPA0HzN5re8A8A2ryZAJDQEAFmzt4vGJoBAAvktoCJnQEABgYWJVn6y9UfhKfwFgIzepbe6UCv4kNAQAWAAXjwFgb1dKCH8TGgIAzNCji8cngkIA2JsjKLAmppTUAwBgBlw8BoDefEltc6S88DeThgAAE+biMQAMwgEUeERoCAAwMS4eA8DgrCbDI9aTAQAmIB8yOXHxGAAGd5/a5lDZ4Z9MGgIAjMTFYwCYBFOG8AShIQDAQB5dPHbIBACmwXuG8AShIQBAj9YOmZwICgFgkoSG8AShIQBAx1w8BoDZ+JDa5k674FtCQwCADrh4DACz5D1DeIbQEABgR2tBoYvHADBPVpPhGUJDAIAtuHgMAItxk9rmVjvhaUJDAIDvEBQCwCJdaSs8T2gIAPBIrOrDtZDQxWMAWCbvGcILYkpJfQCA4gkKAaAoX1LbHGk5PM+kIQBQLEEhABTLART4DqEhAFCUWNVHOSRcXT1+rfsAUCTvGcJ3WE8GABZPUAgArLGaDBswaQgALJKgEAB4htVk2IDQEABYDEEhALABq8mwAevJAMCsCQoBgC1YTYYNmTQEAGZHUAgA7MhqMmxIaAgAzIKgEADogNAQNmQ9GQCYrFjVhzkoPBcUAgB7uk9tc6iIsBmThgDApKwFhauvt7oDAHTElCFsQWgIAIxOUAgADOBSkWFz1pMBgNHEqj5dCwsPdAIA6ImrybAlk4YAwKBiVR/nNwoFhQDAUKwmw5aEhgBA7/Ll44eg8JWKAwADu1Jw2I71ZACgFzkoXIWEZy4fAwAjspoMOzBpCAB0xkETAGCCrCbDDoSGAMDeYlWf5IlC7xQCAFNjNRl2YD0ZANiJdwoBgBmwmgw7MmkIAGxsbf343DuFAMAMWE2GHQkNAYDvilX9cNDEO4UAwJxc6hbsRmgIADwpVvXx2vqxdwoBgLm5SW1zq2uwG6EhAPCXHBSeeacQAFgAB1BgD0JDAChcPmjysH7snUIAYCm8Zwh7EBoCQIEEhQDAwn2ymgz7ERoCQCHWLh+fOmgCACyc1WTYk9AQABZMUAgAFMpqMuxJaAgACyMoBAAK9z61zV3pRYB9CQ0BYAEEhQAAfzFlCB2IKSV1BIAZEhQCAHzjPrXNobLA/kwaAsCMCAoBAF7kAAp0RGgIABMnKAQA2JjQEDpiPRkAJkhQCACwtS+pbY6UDbph0hAAJiRW9ZmgEABgJ5fKBt0RGgLAyGJVn65NFR7oBwDATlxNhg4JDQFgBLGqT0IIZ4JCAIBOfEhtc6uU0B2hIQAMJFb18VpQ+ErdAQA64wAKdMwhFADoUT5ocpa/Xqs1AEDn7lPbHCordMukIQD0IL9TeOagCQBA70wZQg+EhgDQkVjVR2tThdaPAQCGITSEHggNAWBPearwPITwRi0BAAZ1k9rms5JD94SGALCD/FbhualCAIBRXSo/9ENoCABbyBeQV2HhO3UDABjVfQjhWgugH0JDANiAFWQAgMm5Tm1zpy3QD6EhALwgVvVq/fjCCjIAwORYTYYexZSS+gLAmrX3CldfB2oDADA5X1LbHGkL9MekIQBkwkIAgNkwZQg9ExoCUDxhIQDA7FxpGfRLaAhAsYSFAACz9N4BFOif0BCAIuUDJ5fCQgCA2bGaDAMQGgJQFNeQAQBm7Sa1zWcthP4JDQEoQqzqkxwWvtFxAIDZMmUIAxEaArBosaqP8i8u3+o0AMCs3YcQrrUQhiE0BGCRHDkBAFicawdQYDhCQwAWJ1b1aZ4u9G4hAMByXOglDEdoCMBi5FXkK+8WAgAszqfUNrfaCsP5l1oDsASxqle/8/xfgSEAwCI5gAIDiyklNQdgtvJV5CuryAAAi/Ultc2R9sKwrCcDMEv50Mnqd5zf6SAAwKJdaS8MT2gIwOzkQydXriIDABTBajKMQGgIwGzk6cJVWPhW1wAAivA+tc2dVsPwHEIBYBbydOGtwBAAoCgX2g3jMGkIwKSZLgQAKNan1Da32g/jMGkIwGSZLgQAKJq3DGFEMaWk/gBMSp4uXK2i/KgzAABF+pLa5kjrYTzWkwGYlFjVJ3kd+ZXOAAAUy1uGMDLryQBMRqzq1S8OfxcYAgAU7T6EcF16EWBsJg0BGF2s6uM8XfhaNwAAineZ2uau9CLA2EwaAjCqWNXnIYSPAkMAALIrhYDxmTQEYBT52MmVy8gAAKx5n9rmVkFgfEJDAAaXj52s3qk5UH0AANY4gAITYT0ZgEHFqr7Mx04EhgAArPtkyhCmw6QhAIOIVX2Upwu9XQgAwFNMGcKEmDQEoHexqs9CCJ8FhgAAPGM1ZfhRcWA6TBoC0Jt87GS1jvxOlQEAeMGl4sC0xJSSlgDQuVjVx/k6sulCAABe8iW1zZEKwbRYTwagc3kd+aPAEACADXjLECbIpCEAnbGODADAlkwZwkR50xCATlhHBgBgB6YMYaJMGgKwt1jVpzkwPFBNAAA2ZMoQJsybhgDsJVb1ah35N4EhAABbcjEZJsx6MgA7ye8XXocQ3qggAABbus+bKsBECQ0B2Fp+v/Cj6UIAAHZ0mdrmTvFguqwnA7CVWNVnIYQ/BIYAAOzo3moyTJ/QEICN5fcLf1UxAAD2YMoQZsB6MgDf5f1CAAA6YsoQZsKkIQAvWnu/UGAIAMC+TBnCTJg0BOBZDp4AANAhU4YwIyYNAXiSgycAAHTMlCHMSEwp6RcA/5APnvyoKgAAdORLapsjxYT5sJ4MwD/Eqr4KIbxTFQAAOnShmDAvJg0B+CpfSF69X/haRQAA6JApQ5ghbxoCsH7wRGAIAEDXTBnCDJk0BCicC8kAAPTIlCHMlElDgILFqj4VGAIA0KMzxYV5EhoCFCpW9eoXcL8JDAEA6Mmn1DYfFRfmSWgIUKAcGP6q9wAA9MhbhjBj/9Y8gLLEqr4KIbzTdgAAevTBlCHMm0lDgIIIDAEAGMi5QsO8CQ0BCiEwBABgIO9T29wqNsyb9WSAhYtVfZgvJL/WawAAenZvyhCWwaQhwIIJDAEAGNhlaps7RYf5ExoCLJTAEACAgX1ZhYaKDssgNARYIIEhAAAjuDBlCMsRU0raCbAgAkMAAEbwKbXNicLDcpg0BFiQWNXHIYTPAkMAAAZ2oeCwLK4nAyxEDgxXE4YHegoAwIDep7b5qOCwLCYNARZAYAgAwEjuQwjnig/LIzQEmDmBIQAAI7p0/ASWySEUgBkTGAIAMKIvqW2ONACWyaQhwEzlK8nXAkMAAEZypvCwXEJDgBnKgeFqwvCV/gEAMIIPjp/AsgkNAWZmLTB8rXcAAIzA8RMogNAQYEYEhgAATMBFaptbjYBlcwgFYCYEhgAATMBNaptjjYDlM2kIMAMCQwAAJsJaMhRCaAgwD5cCQwAARvaL4ydQDqEhwMTFqr4KIbzTJwAARvRl9ZahBkA5hIYAEyYwBABgIs5T29xpBpRDaAgwUbGqzwSGAABMwIfUNtcaAWURGgJMUA4Mf9UbAABGdh9CONMEKI/QEGBiYlUfCwwBAJgIa8lQqJhS0nuAiciB4eoi3YGeAAAwsk+pbU40Acpk0hBgImJVH4YQrgWGAABMgLVkKJzQEGACcmC4mjB8pR8AAEzARWqbW42AcgkNAabhMoTwWi8AAJiA1VrypUZA2YSGACOLVb36Bdk7fQAAYAJWa8mnGgEIDQFGFKt69U7Mj3oAQOG+hBB+CCH8nP8zMJ4z15KB4HoywHjypeQ/tACAwt2EEE4eQopY1as3ft+UXhQYyYfUNqYMga9MGgKMYO3wCQCU7N5UE0yGa8nAPwgNAQa2FhgeqD0AhVtdZ/1cehFgIk4F+MA6oSHA8FxKBoDnr7Meqg0M7pfUNrZggH8QGgIMKB8+cSkZgNK9tAbpN9ZgWDepbc7VHHhMaAgwkHz45Ff1BoBwmdrmVhlgdN4xBJ4lNAQYQH7H8FqtASB8SW1zoQwwCefeFQWeIzQEGMYqMHyl1gDw/FRTrOoj5YHBvE9tc6XcwHOEhgA9i1W9mqZ4o84A8PX4yUvHFoSGMIyb1ZShWgMvERoC9ChW9UkI4Sc1BoCvrCXD+L6+Y5ja5k4vgJcIDQF6kt8xtPIBAH/63pQhMAzvGAIbERoC9OfKO4YA8JdNpgxPlAt65R1DYGNCQ4AexKpevRHzVm0B4CtThjA+7xgCWxEaAnQsX370ZhMA/M1kE0N4H0L4nxDC/83/mb+t3jE89Y4hsI1/qxZA565DCAfKCgBffdliHdJ6Mrv639Q212t/7ln+jdw3KvrVKjC8ncD3AcyISUOADsWqXk0YvlZTAPjLpVLQsw+PAsMHJlz/9B/PAwC7EBoCdCRW9XEI4Sf1BIB/2Ca4OVQ6dvDcz5jJuj8PnwjugZ0IDQG643ezAeCf3m/5hpppfbb15ZkpQxw+AfYkNAToQKzqS/9DBwC+YcKJvvlN26c5fALsTWgIsKdY1atH239URwD4h5vUNp83LUl+5gO2JTR82onDJ8C+hIYAe4hVfegXqwDwpG3//eg9Q7b1QTD2pB+2CewBniM0BNjPau3qlRoCwDe2DQ2PlJAtfe9nrMQg+ufUNn5DG+iE0BBgR7GqT0MI79QPAL6x7QGUIDRkS5scQClt5X31z93FBL4PYCGEhgA7iFV9ZC0ZAJ61yzVb68lsw6/D/mn1hujZlL4hYP6EhgC7Wf1C9UDtAOAbm0yAPcUhFLYhNPzbzerwyVS+GWA5hIYAW4pVvVr7eKNuAPCkXQLDYNKQLWx6AKWElff7fCl52+cAAL5LaAiwhVjVqymIn9QMAJ616wTYayVlQ5v+jC09NBQYAr0SGgJsKFb14R7TEwBQgtW7ap+3/Zz537GwiV3X35fmITDc+p83gE0JDQE2dxlCeKVeAPCsXacMvWfIprxl+KczgSHQN6EhwAZiVa+u0b1TKwB4kfcM6ds2oeFSw+gfTFsCQxAaAnxHfsfwUp0A4EWfNjxO8RSThmxi0wMoDw4WWNVVYGjaEhiE0BDgBfmNpauF/qITALq0T5BRwpVb9ld6WCYwBAYlNAR42YVrjgCwkX3WJYWGfE/pB1AEhsDghIYAz8jvGP6oPgDwXau10bs9ymQ9me/ZKjCLVX2yoIoKDIFRCA0BnuAdQwDYyr6BhmdA+J5Sf10mMARGIzQEeMQ7hgCwlft91kYXNhFGP97vOck6VwJDYFRCQ4BvXXrHEAA2tu87c94z5Ht2Cc7mHkYLDIHRCQ0B1uR3DN+pCQBsTGhIn1YHUD4WVmGBITAJQkOALL9j+Kt6AMDGurhoaz2Zl1zsWJ25htECQ2AyhIYAf79juO//6AGA0nTx706Thjznfo+fsbn9XN0LDIGp+beO/L/27iYrjitbG3BkrepL3whQjUBUJ7uiOtkVNQLhERiPwGgEhUYgGIFRl46hS6dgBCVGcMUI8lsh77QTxD/xs8+J51mLJdu3rsiM/DkRb+y9D8B37QnphkMBAE/SRcBh/eUuRxPZAKUNDLeWZ8fnCR4LwJ9UGgKTN5sv2o1P3k39OADAE12+NOSwczIPeG5rcmuzkIMrMATSEhoCkxYbn/w89eMAAM+w38FB05rMXU6XZ8dfX3B0XhVwZC/acFNgCGSlPRmYrNj4pIsLHgCYIvMM6dOzW99jVnV2F1FhOIX2a6BQQkNgktY2PinhLjQAZPPSKrAV7cnc5vKFG4Jkb00+XJ4d7yR4HAD30p4MTNWJwesA8Gxd7fBaytw5hlXzDsIfBYZAKVQaApMzmy/aE9G3XnkAeLYXtybP5os3Kv65w0vHx2QMo9sNT3ZfWEEJMCihITAps/lit2maD151AHi2w47msKky5DZdvL+yzTS0QzJQJO3JwGTM5ovtpmn+4xUHgBfpYgOURmjIHbrYpC5TaNhuePJGYAiUSKUhMAmxU7J2EAB4mXaDiq5CQ5ugcNNpR+FalkD60/LseDfB4wB4FqEhUL3YKfnE3CQAeLGuAsNGpSG36KLKMAPzC4EqCA2BqgkMAaBTnYQ6NkHhFl1Wsb4b8QC37cg72pGBGphpCNTuyE7JANCJtnX0a0d/lypDbtqr4Igc2vAEqIlKQ6Bas/niYOQ7zQBQky5bLYWGrLvqqvU9qliHph0ZqJLQEKjSbL5o71Z/8OoCQCeuOg5EbILCuv3l2fG3jo7I0KFh24683WEVLkAaQkOgOrP5Yqdpml+9sgDQma4rqHQCsK7L99frAY/sx+XZcQ1t1QC3EhoCVZnNF9tN03z2qgJApzrb1XY2X2hNZt1hx1V6Q7y/LqO60OxCoGo2QgGqERchZskAQLe63ACl0ZrMDaVV6n1qg0mBITAFKg2BKkRgeNI0zSuvKAB0qusbcioNWek6kG56fH+11YU7y7Pjk57+foB0hIZA8WKXPIEhAHTvsocdYVUastJHlWEfMw3NLgQmSWgIFG02X7QnhkcCQwDoRaeBYdzo2/BSEVWGfVTtdbl78mEbbNoZGZgqoSFQrAgM25PNt15FAOhFZxugBFWGrPRVuddFKH0arcjCQmDShIZAkQSGANC7dlfbbx3/EqEhTbS9d15lGOeHL3EalYXmFgKT1wgNgRIJDAFgEH1UggkNaXqsMnzuJijtJie7y7Pjo44fD0DRhIZAiQ4EhgDQqy9dt2aaZ0joY3Od57qMysIsjwcgFaFhpaISa3WnbfPGLmIvvcN73jTNeqvKt/hv3ynnp0+z+aI9qXvvIANAr7qeZdioMiT0uQvxYysNr9r3uB2RAe4nNCzcbL7YWgsFt+LPviuw3t33f5zNF+v/ehp/fo2fJtpKW+c9zMmhYhEYfvAaA0Cv+trVVmhI31WGD800vIpAfN91CMDDhIYFiZaOrfjZLKQ9892NP1u/rv4hAsaLtWrFa39azFkRGALAYPqqvhIa0ndl35t7/m+H0YpsR2SAR5otl0vHKqloMW5Prrbjz6nOgDldCxNXFYsCxQkRGALAYNoqw87Dvbj5/T8v46S1VYb3hXovNpsvTm7pihIWAjyTSsOEZvPFTgSF5rb9YbXwXzseUaV4uh4ktn8uz47Pb/9rKJHAEAAG1Vcl2LaXcfKGmB+43p58GmGheesAz6TSMInZfNG2G+/GCdWrqR+PDlxGkHiyChWdMJRHYAgAg+qlyrD5Y00/ckN80nqvMmz+eJ8tY/TRrnN/gJdTaTiy2Mhk76HNRXiyjfj587hGZaIwsRACQwAY3E6Pv9A8w2kbapfin3reaAVgUlQajkRYmI4wMRGBIQAM7nB5dtxLaBjnvb97SSdrkCpDALqn0nBgMQT6QFiYzmMrE8/NTOxPbP5zoH0JAAZ1FWNy+mKe4bQNVWUIQMdUGg5oNl+0C+avk3nCdbtY23zFBiwdiLmeRxPeJRwAxvLL8ux4v6/fPZsv2nOkt17dSeptTiYA/RMaDiDCkAMnS5MgTHyiqC5sA/Wfi3rgAFCHi+XZ8WZfzyS6bP7nvTJZ/zLyB6Bc2pN7prpwct7Gz5/ttTZguV2EhbvxY8dwABhHn23JjdbkSTud+vkuQOmEhj2Ju6pHqgsJd81MvFpVJK6Fit9qrk6MytvduIgQFgLAeD4NEOpoTZ0uswwBCqc9uQez+WI72pEFIrzE5Vqr87fVnyXesY1dE7fjx8xCABhfe56xuTw7/tbXI4mugv/zWk/Sl+XZsSpTgMKpNOzYbL7YN5uNjvxQndj8VaHYxPzEb2uh4qpasRkzWIxKwvUfO4VDN1Y3Eu7yks/96/jM3sdnGeqy02dgGFQZTlffbe8ADEBo2JG4k3rkoooBrVrff3jPrQWLq/bnZi1gbO7496fYjJChWfvnN6oI4UF3fSZ/+HyWMKYgRnG8ufGfb4YE6//+2tgOSOHjQDcYVZpN0+Hy7Pi+m1wAFEJ7cgfsjgzAWiC4HgCuLsrPB6joKU6MLli57Z+FjNC9XndLXjebL74Z1zM57Vr4xpoHUAeVhi8UgeGJEyKASVgFg6twsPrNi/p0o9Lp3qqnG1WNqwrn9bbqTWsxPOhqqJbhmPHtMzk9+wJDgHoIDV9gNl/stAujEyKA6qzCwZPVvNASNyGqSbS6rdrd7nwt1sLFm4GiMQrQNFsDBjpak6fnMq6NAKiE9uRnisDwc5EPHoB1l2vVgydaiet3R7C4qr4ym5ha/bQ8Oz4Y6rlpTZ6kQd9jAPRPaPgMAkOAYq1XEH7/U0DIbWL8yOu1KsX1PwUhlObT8ux4sN1sozX5N++SSTldnh3bLRugMtqTn0hgCFCUqwgITyIgNHuQR1l7r9zaCi1UpCCHQwaGQWvy9OxN/QAA1Eil4RMIDAHSExKSglCRJNrAcGfoh6I1eXK+LM+OBcUAFRIaPpJdkgHSOo3v5yMhIaWYzRerNr6bf5qpSFfGCgy1Jk9Le7NuMzarAqAy2pMfIQamCwwBcmgvUI7WgkIzCSnO2m7cd7U/b91RqfjWq80jjBIYBhVn07IvMASol0rDB8zmi9dxQu8kHWA8lxEUHq2FLTBJcW5yV/uz8xVG3cFWa/KkXEaVoZt3AJUSGj5gNl+0J10fUj9IgDqtgsIDbcfweGuhYqP9eVLaKuztMW+saE2enH8vz46Ppn4QAGomNLyHEx+Awa1aj/cFhdCfWzZqeRM/qhXL1M523Rm7TXQ2X7Tf3+8LPo483uny7HjL8QKom9DwDnGX/qv2CoBBfImKQhULkMTaZi03g8VGxWIqH5dnx3tjP6A4d/6/XIeGHv3DLEOA+tkI5W77AkOAXl3Gd+2BeUiQz0ObtTR/bRa3ChJXIeP6f9t0PtWLVVX2XqLgxgYo0/FRYAgwDULDuym3B+jHYQSFNjSBwkVwsAoP7v1Mr1Uurs9cbG6ccwkZf3Qa/2V1rM+TVmXvJngM9G91ww+ACdCefI+YabirBQfgxVQVAk9yo4qxuVHB2NwSPjbJZzK21YHrs1q/3fj38/hvTQSDxXxXxmv1vwQPhf7Z/ARgQoSGjxB3xnfsogzwZKexqYkLDGBUa5WOQygq9Hup2XzR3hT6uexnwSN8WZ4da0MHmBCh4RPEXdS9mNmidQbgbofJZm0B0JPZfNF+1284vlVrK2U3resA0yI0fIbYHW43foSHAH+4WmtBdlEBMAExzuc3r3X1flmeHZtlCDAxQsMXWKs81LYMTJl5hQATNZsv2vET773+VbtYnh3fnB8KwAQIDTswmy8244LZhinAlFxGC/KBVx1gemyAMhn/XJ4dn0/9IABM0d+96i8Xi+jWbL7YifBQyzJQM2EhAE1sFEjdPgkMAabrb1777sQFdHvH9UstzwlgTRsW/rQ8O34jMARAaFi9yxjFBMBEaU/uSQyFPlB1CFRAZSEA19gAZRL+tTw7Ppn6QQCYMpWGPVmeHR+pOgQKp7IQgLuoMqzbJ4EhACoNBzCbL3abpvlP9U8UqIXKQgDuZAOU6rXnAZvLs+NvUz8QAFOn0nAAy7PjdnOUfzZNc1H9kwVKdtU0zS8qCwF4gCrDuu0IDAFohIbDWe2wrF0ZSKgNCz+2IxXiJgcA3GfX0amWtmQA/qQ9eQTalYFEPkUrsooCAB40my/aKsPPjlSVtCUDcI3QcCSz+WKzaZoTuysDI2mrnneXZ8dfvQAAPNZsvmi7Z946YFWyWzIA1wgNRzSbL15HcOjECxjKaVQWuigA4Elm80U7aud3R61KbVuytnMArvm7wzGeKP3fnM0X7YYDH6Z6HIBB2BEZgJcSKtWp3axxb+oHAYAfqTRMwpxDoCftJif7y7NjFwMAPNtsvnjTNM3/HMEq/TM2bQSAa+yenETsWPqvuMAH6MJh7IgsMATgpawldfooMATgLioNk4kNUg7MOQRe4DQ2OXERAMCLxRzurzbwq87p8ux4a+oHAYC7qTRMJi7yt+KiH+Ap2rmFP7UXAAJDADq0KzCsTtvdtDP1gwDA/VQaJmaDFOAJPsbswm8OGgBdms0X34SG1fn38uz4aOoHAYD7CQ2Ts0EK8IC2KnlneXb81YECoGuz+aKtRvvswFblcHl2rMoQgAdpT04uNkj5tw1SgBvaVuR/RSuywBCAvtgApS4X0W4OAA9SaViI2CClbSHYmPqxgIm7ijZkF3EA9EqVYZX+ae4xAI+l0rAQsbhvxt1BYJraVuRNgSEAA7He1OUXgSEAT6HSsDCz+eJ1W2VkgxSYlLYVedfAcgCGMpsvtpqm+d0Br8aX5dnx9tQPAgBPo9KwMO3OqDG4+OPUjwVMxMeoLhQYAjAkVYb1aDuVbHwCwJOpNCxYzJlpqw5fTf1YQIVOo7pQGxEAg1JlWJV2FvKW8wkAnkOlYcGWZ8cH7UlAtC4CdWhP7n+KXZGd4AMwBlWG9XADEoBnExoWbm2DlNOpHwuowGHTNG/ihgAADC6qDN858lU4dE4BwEtoT67IbL5oW5V/nvpxgAK11cI7y7PjEy8eAGOazRcnQsMqXCzPjjenfhAAeBmVhhVZnh3vtm2N0d4IlOHj8uz4jcAQgLGpMqxGey1gp2QAXkxoWBlzDqEY7UiBfyzPjs2NAiALa1Idtpdnx1+nfhAAeDntyZWazRevm6ZpA8T3Uz8WkMxVDCU3YwiANOyYXI1flmfH+1M/CAB0Q2hYudl80bYs/2fqxwGS+BKzC795QQDIxCzDKrQbn+xM/SAA0B2h4QTM5ovNqDp8O/VjASOx0QkAac3mi3b+3W9eoaLZ+ASAzplpOAHLs+PzmHP4aerHAkbQfu42BYYAJKadtWxXca4PAJ1SaTgxMa+mrTrcmPqxgJ5dRHXhuQMNQFaz+aJtZ/3sBSrW98DQ+QYAfVBpODFR7bSp6hB60568f2xbhJzAA1AAOyaXzQ1KAHqj0nDCVB1C507j5P2rQwtAdjbMK56dkgHoldCQ9oSxvcPcnjS+cjTgLqwkJQAAIABJREFUWdrqwt3l2fGBwwdACWbzxeumab46/yuWnZIB6J32ZNqW5TY0fNOefDga8GRf2s+PwBCAwrhhXK5TgSEAQ1BpyDWz+eJNzLb54MjAvS6juvDIYQKgJHG+dy40LNJFbHzybeoHAoD+qTTkmnYWW9y5/IfKQ7hTu5HQpsAQgELtCQyLdCUwBGBIKg25l8pDuOYyNjo5cVgAKNFsvthsmua/XrzirAJDOyUDMBihIY8S4WE7s+2dI8ZEfYz5nwBQrNl8ceJ8rjgCQwBGITTkSWbzxXaEh1pamIqLqC50og5A0eI87jevYnF+suEaAGMQGvJks/nidQSH7x09Ktbe1d9bnh3ve5EBqMFsvvjaNM2GF7MoAkMARiM05Nlm88WBWYdU6jSqC796gQGowWy+aEds/OrFLIrAEIBRCQ15kdl8caTikIq01YW7TtABqEl0iXw1XqYoh8uz452pHwQAxvV3x5/nihPQLQeQSnyJ6sJvXlAAKrMvMCyKwBCAFISGvMSRE1AqcBlh4YkXE4DazOaLTeNkiiIwBCCNv3kpeI7ZfLHbNM07B4/CfWqaZlNgCEDFbOhVDoEhAKmYaciTxR3r/zpyFOwiqgvPvYgA1Go2X7QB1GcvcBEEhgCkIzTkSWKOYRu0bDhyFKjd6GR/eXa858UDoGY2PymKwBCAlMw05KkOBIYU6jSqC796AQGYgD2BYREEhgCkpdKQR4s5hv9xxChMW124uzw7PvDCATAFRskUQ2AIQGo2QuFR4uRTYEhpDpumeSMwBGBibH6Sn8AQgPS0J/OgmIlz5EhRkMtoRbYrMgCTEpufvPOqpyYwBKAIQkMewxxDSvLRRicATFHc6FVlmJvAEIBiCA25V8wxfO8oUQAbnQAwdfs2P0lNYAhAUWyEwp0M0aYQNjoBYPJm88VW0zS/T/04JCYwBKA4NkLhVuYYUohPNjoBgO+0Jef1k8AQgBJpT+YuR+YYkthFtCKfe5EAmLrZfNHO8n079eOQ1E9ubgJQKu3J/CBOPH91ZEiobUXeW54dq6YAgD/O2940TfM/xyId41MAKJ5KQ66JeTgCQzI6jJPvb14dAPiTUCqfNjDc0hEBQOmEhvzJHEOSuoiw8MQLBAB/mc0X7Zy8dw5JKgJDAKohNGRdGxi+ckRIQlsPANwhbvYa15HLRQSGuiIAqILdk/luNl/su1NNInZFBoD7HbjZm8qpwBCA2tgIhTYw3G6a5jdHggROo7pQSw8A3MG5WzqHy7PjnakfBADqIzScuNhx79ydakZ2GWGhmZoAcI9oS/7q3C2Nn3RGAFArMw0xx5AxtXML95dnx3teBQB4lH3nbim05zA7bngCUDOh4YTFHMO3Uz8OjKadW7hn9g8APM5svthqmuaDwzW6tkNi2zgVAGqnPXmizMJhRF+iFfmrFwEAHifaktuQasMhG9VpBIZuegJQPZWGExRzDM1eYWinUVl44sgDwJPtCQxH92l5drw78WMAwIQIDafJHEOGZJMTAHiBaEv+2TEczVWcy7jpDsCkCA0nxhxDBnQZlYVOsAHgmaIt2Vo6HvMLAZgsoeGExBxDd6npm7AQALqjLXk8X2KHZPMLAZgkG6FMRMwxPNeWTI/a1p395dnxnoMMAC8Xbcm/O5Sj+GV5drw/wecNAH9SaTgd5hjSl8uogjhyJx4AuqEteTTakQEgCA0nYDZf7JljSA+0IQNAfw60JQ9OOzIArNGeXDltLfRAWAgAPYo51L85xoPSjgwANwgNKxZtLV+1JdOR0wgLTxxQAOiH87fBXUR1oXZkALhBe3LdDpxw0oHD2ODEyTQA9M/523A+xQ1R7cgAcAuhYaVm88Vu0zTvp34ceLbvOyFHWOhEGgAG4PxtMFex2YnuCQC4h/bkCs3mi82maU7cpeYZzCsEgBHM5os3TdOcO3/rnc1OAOCRVBrWSVsLT2VeIQCMy/lbv64iLDyq+UkCQJeEhpWZzRdtS+nbqR8HHu0wwsKvDhkAjGM2X+w1TfPO4e+N6kIAeAbtyRWZzRdbTdP8PvXjwINW8woPhIUAMK4YK/NfL0MvVBcCwAuoNKzEbL54HW0tcJfLeI/Y3AQAEnD+1qu2m2LXOQ8APJ/QsB5t5djG1A8Ct7K5CQDktGesTOcuo7rQnGYAeCHtyRWYzRfbTdP8NvXjwA9Oo6pQSw4AJGOsTC8+6qgAgO4IDQsXbS1f7bbHGjshA0Bizt86dxrVhWY1A0CHtCeX78AJJ+EwNjcRFgJAbs7funEVcwuNYAGAHggNCxZtLe+nfhz4HhbuubsOAPnN5otd52+d0IoMAD3TnlyoaGs5t/nJpAkLAaAgs/lis2maE1WGL6IVGQAGotKwXHsCw0m6ipamfSfLAFAcbcnPZ1dkABiY0LBAcZf656kfh4lpw8J9bTgAUKbZfNGu42+9fE9mbiEAjERoWCYnTdMhLASAwsUcajd8n8Y5EACMTGhYmBie7S51/ZwoA0AFYg71kdfySQ6jutA5EACMyEYoBYmTzq9m4VTtMjY3UU0KAIWLc7cTN3wfzSZvAJCISsOy7AkMqyUsBID6HAgMH0VYCAAJqTQsxGy+eNM0zf+mfhwqJCwEgArN5ot2bf/gtb2XsBAAElNpWI79qR+Aypy21QfCQgCoj8DwQcJCACiASsMCxI57v0/9OFTiNE6ST6Z+IACgRgLDewkLAaAgKg3LsDf1A1CBL7ETsrAQACo1my92BIY/uIrZjvvCQgAoi9AwuagyfDf141Awd9QBYAIiMPzstf7TVYzXacPCb0keEwDwBELD/HanfgAK5I46AEyIwPAam7wBQCXMNEzMjsnFcUcdACbG7Ok/GcUCAJVRaZibWYZlcEcdACZoNl9sNk1zNOHXXncFAFRMaJjb9tQPQHJ2QgaAiYrAsD0HeDXBI9CeAx24YQoAdRMaJhWzcaZ4EloCm5sAwIRNNDBUVQgAEyM0zEuVYS6XayfK5hUCwETN5ovX0ZI8lcCwnVV4pKoQAKZHaJjX+6kfgCROIyic8rwiAOCvwLCtMNyo/HhcxuZuR6oKAWC6hIYJzeYLVYbj0n4DAFyzFhi+rfTIrM5/2lmF5wkeDwAwMqFhTptTPwAjMdQbAPhBxYHhVbRaH+mqAABuEhrmtDX1AzCgy7W76qoKAYDb7FcUGAoKAYBHERrm9GbqB6BnTpYBgEeZzRftzcUPhR8t5z4AwJMJDXOqfbj2WL6snTDbARkAuFfhgeFlnPeYUQgAPIvQkNoJCgGAJ5vNF3sFBoaCQgCgM0JDaiQoBACebTZf7DRN82shR/AiNmkRFAIAnRIaUoM/5/S0J82CQgDguSIw/Jz4AF5GSHgS5z02cgMAeiE0zOm0aZp3Uz8IDziNk+Ujd9UBgC4kDQzbc57zOO85FxICAEMRGuZ0LjT8wcWNu+qqCQGAzszmi82RA8P2XOdrnAeeCwgBgLEJDXNqd+r7eeLHYP2uupAQAOhNBIYnPR/hqzi3aeJ3fYt//yocBAAymi2XSy9MQrP54mRC1YaXN9pu+j5pBwD4bi0wfPXMI3K69s/nEQY2ayGkUBAAKJJKw7z2mqb5vcLndXpL640qQgBgLG1ouH/L7/4aP9e4uQkATIVKw8Rm88V2nMRuFPbQL9eCwW9xp91ddgAAAIBCCA0LMJsvtpqmaXfz235B60yXLiIMXN2BX83k+WYnYwAAAIDyCQ0LE3N3tqKV5k38+Zwg8WJt5s7KzTac9bk8KgUBAAAAJkJoCAAAAABc8zeHAwAAAABYJzQEAAAAAK4RGgIAAAAA1wgNAQAAAIBrhIYAAAAAwDVCQwAAAADgGqEhAAAAAHCN0BAAAAAAuEZoCAAAAABcIzQEAAAAAK4RGgIAAAAA1wgNAQAAAIBrhIYAAAAAwDVCQwAAAADgGqEhAAAAAHCN0BAAAAAAuEZoCAAAAABcIzQEAAAAAK4RGgIAAAAA1wgNAQAAAIBrhIYAAAAAwDVCQwAAAADgGqEhAAAAAHCN0BAAAAAAuEZoCAAAAABcIzQEAAAAAK4RGgIAAAAA1wgNAQAAAIBrhIYAAAAAwDVCQwAAAADgGqEhAAAAAHCN0BAAAAAAuEZoCAAAAABcIzQEAAAAAK4RGgIAAAAA1wgNAQAAAIBrhIYAAAAAwDVCQwAAAADgGqEhAAAAAHCN0BAAAAAAuEZoCAAAAABcIzQEAAAAAK4RGgIAAAAA1wgNAQAAAIBrhIYAAAAAwDVCQwAAAADgGqEhAAAAAHCN0BAAAAAAuEZoCAAAAABcIzQEAAAAAK4RGgIAAAAA1wgNAQAAAIBrhIYAAAAAwDVCQwAAAADgGqEhAAAAAHCN0BAAAAAAuEZoCAAAAABcIzQEAAAAAK4RGgIAAAAA1wgNAQAAAIBrhIYAAAAAwDVCQwAAAADgGqEhAAAAAHCN0BAAAAAAuEZoCAAAAABcIzQEAAAAAK4RGgIAAAAA1wgNAQAAAIBr/u5wAACUazZfbDVNs9k0zetbnsS3pmnOl2fHJ15iAACeYrZcLh0wAIBCzOaLN03TbDdNs9M0zdsnPOqLpmkO2p/l2fE3rzcAAPcRGgIAFCDCwr2maT508GgP279reXb81WsPAMBtzDQEAEhuNl/stm3GHQWGTfw95/H3AgDAD4quNJzNF/sxw2cM+8uz46NxjwBDG/k9t7s8Oz73ogNMx2y+eB0txe97fNKHscZoWYYKjHy+OiXf4mbOuj/nx5olOw2z+aL9rO1P/Tgkdh6f1XXrn81z5z/3Kz00HPPBXy7Pjt+M+PsZWLSF/W/E4/7L8uzYggQwEREYnjxxbuFztfMOt5w4Q/lm80X7vfHOS5nGZdM0X9dCxq/xI6yoQGxG9vvUj0MlTuNprILG9rv029QLd4rdPTk+nGPaaB+DO0iTsjfyk91yFwtgUo4GCgyb+D0nqpMAOrcRP83NqvHZfNFEULEKEk+EiTCa1c2W1Z+/Nn99Ti8jTFz9nEzlc1psaBgBytj2kjwOehbVHl3NkXou7zWAiZjNF3sjVAq9bdsal2fH5hwCDOfdLSHFKqBYhYgKVWBcq/D/z+A/Pqcn8Vk9qnVzuWLbkxOV3f9z6uWqUxAXb78meKr/ctIAULeYj/TfEZ+ktQYKpj25WqcRUBy5/sxDezJrLtc+o9Xsf1FypWGWhbC9G7+T4HHQryxVF1s3BrcCUJ+xR1G0G6+Y2wyQy6oi8dfZfHG1CicioNDODOPbiO7ED/EZPaohQPxbgsfwZLP5YjvRw/kQG2RQqdl80YbCr5I8Oy3KABWLioWxb4xuxNoHQE6vok3yc9M0/zebL85n88Wu61JI41UEiL/N5otv7fiXUj+fRYaGCYMTJ9Z1G3sDlHVaTQDqlqWyPdPaB8D92s2s/tM0zf8iQNyJmezA+NoA8ef4fB4l2NT3SYSG3dj1pVyn+EBvZHpypX3JAPA4cS7xPsnh2ojZigCU5e1aBeJRsi49mLr2PO/3dvZsKdf1xYWGcUL9NsFDWfdKtWG1MlZaCA0B6qSTAoAuvY/2yK/txo4KXSCNd2vhYeq25RIrDbMGJlnaiehIVFhkbAd2txCgTtkq+9ykAqhD2zn1a1QfHph9CGm8i7bltGNhhIbdMTS8PlmD4LfuEgJUKds5TrbODgBe7kOEFAfGHkEav8Y80nSjYYSG3VJtWIm4+/Yh8bOxwAPQO3MNAar1Ya090nc9jK+9Wfvfdif0TK9FUaFh0nmG6966W1ON7FWj3mcA9ck4EkNlO0Dd3kVQoW0ZcvhPfB5TnIOVVmlYQlCi2rBw8eHM/joKDQEAgK6s2pZtmALjaz+PJxk+i39PcDCeooSg5H17h2Z5dvw1wWPheXZiR+zMvs81XJ4df/MaA1TjqoD1B4C6tRum7LYtksuz4wOv9Wgum6aRKTxf9i7Vx3gbweHWmNf9pYWGpewau1dAeyt3K6VatA3RjxI8DgC6cZ60RRlg5VCQ8aebBS2bFd34aZ/H59joc0dBzCgOlmfHaXfULVG0369a8DcjWFz9mfX8a/TgsJjQMF7gjQQP5TE+xJ0ZVWCFiYWxlPeZ0BCgLhnPG1woAuvaIOPEEblbtBOuNhbZWgsmSrqeXXkXLcsfBViULsLv1XnND99ja6HiVvxkuREwanBYUqVhaTPcdqPikLKUVCG6bYYmQFXaSsP3mZ6Q6hKAp4mL+lUgcS2YWAsUN9dCiRKCxF9n80V77bFtXaBWa6Hin5/b2Oh2O37G/Ky2weHBGN23JW2EUmJoSEHiC6GktrANO5wBVCVb9c5pgscAUI02UGwrNZdnx/vLs+M2gGvP5f/RNM1P0fp9mfi5tqHFeXRmwSTE53U3Pqv/bJrmU8ygHkO7f8bghWlCw/688oVanBJfL7soA1QiWv7GOhG9jREYAD1rq5vaDUeWZ8c7a8HEL03TXCQ89qtZhwd2WGZqlmfH522AGC3MH0c6Z/s1ip0GU0RoWNg8w3XakwsR77EPBT50oSFAXTIFdUJDgIFFMNFWIm5GFWLGAPFDzFjbfMT/FqoSFcN7a+Hh0AYN7UupNCw1GNmI2Q/kV2rAKzQEqMt+kmdzam4VwLiiCnEVIP4zWpizVKT/uTlDgscCg1sLD/8xcLC/MeQ4PKFh/8w2TC5S+lLDXXMNASrSVpgkmSWoWwIgkahA3Inqpl+SzD9s25V/N5aLKYtwfzPmHQ7l16FyAKFh/965+5LebpKt1J/L+wugLmNffH2J+YoAJBPVTfsx//CnJOFhO+cwS6U8jCLmHf404O8e5AZv+tCw4HmG69x5ya3010cLPEBFoi34l5Ge0ZXzFoAyxAYqWcLDn9sNUko5dtCH9jM5YHD4YYhqwxIqDWsIRAZ5MXm6KKUvPZRWaQhQmbaKJGZXDW27rWLxfgIox1p4+MvIMw8/CA6ZuoGDw96rDUsIDWsJRMw2zKmGmU2v7FwGUJ+YXTXkfMOftCUDlCtuOL0Z6abTiuCQyYvgcIjP4Ye+d1IWGg5nZ8htsXlYzJosvcpwRbUhQIWWZ8dbA5x0tlUp/44TXAAKFjMP25tO/xqxZVlwCH8Ujg3xGex1rEzq0DCqp0reoGLdK9WG6dS0M6TQEKBScfHXV8tZW8m4uTw7PvL+AahHVI4PvaPrOsEhkxbjXoaYEz3d0LDCIMRg8SRixuS7ip6S0BCgYj20nF1GO/JWbLwCQGWi6nA3qg7HmHUoOGTSIrzve9TM2z730BAaDmsjNt5gfDVVGTbmGgLUb63l7B9ReXjxxCd9FaHjv9qB+dqRAaYhgos3A8/JXfngGpiJGyJ76G0D4b/39Rd3pMbqqfZOj5P0EcVsyQ8VPrX2i+I8weMAoEdRGdhWHu7Hmrb5wDlTuzacqygEmK5oldyazRft+vHzwAfi82y++GYUBlPUhvaz+eK0507HrTg37Fza0LCyeYbr2tLRLbsTjqrW2ZJalAEmJi4CT+IHAO7VtivP5ov2ZtLngY/UQVwHK3Jgig4GCA17kbk9ueYApLbW2GJERUatoWFNMxoBAIAexHiKfw885/BVBIevvaZMTXzm+vy89TauTGg4jnd9DqrkXtuVVrB+1969S/AwAACAxKJVeGvg4PCtUV1MWN/t+ULDyqg2HEftx11oCAAAPChahYcODt/P5otaO7/gPn2PkplOaBjVUtVWg4UPqg2HNZsv2irDjcqfptAQAAB4lJGCw72+WikhMaFhh6YSfNh6flhTuKP1zpwQAADgsUYIDl9pU2ZqlmfHX5umuezxafdSlCY0HNeugGcYUb06lY1CVBsCAACPFsHhkEUWb2fzhZFdTM3XHp9vL12VWUPDqYQ7r2JjDvo3papOoSEAAPAkscPrTwMetV+N7GJiem1R7qMoLV1oOMHdX91d6VksRB+qfpLXCQ0BAIAni+DwcMAjp02ZKfnW83PtfK5hxkrDqQUeG7P5wmzDfk1td6632t4BAIDnWJ4dt9enFwMdvHexYSVMwXlpz1FomIPQsCcRnk3x+Ko2BAAAnmt7wI1R9hU9QE4ZQ8OpzDNc926CbdlD2YnZkVPj/QQAADxL7PQ6VPHFxgS7w5imPjdC6UWq0HDiwZlqw35MdfFR4g8AADzb8uz4qGmaLwMdwV3VhtQuwvii/D3Zg51y0PGh3XK+xDdRVjErspdtxwvQzsp84/2Uz2y+aIfTtidEb+KnufHPj/HtxjyM1S5c58uz476H60JqsfnVm7WK68d+vlafo9Xn69vy7Li4uTPk1/M68NXaD3RsJ6qj+u7eehWbhKo4hOfb6nqH5myh4dRbKvdUHHZq6gvOlt3IxhOV029iB6vVT5cnW+/X/vnX1T/M5osmBld/iwXja4SJwg+qExUJW/Gz+cIRJz/8/8bn6TLCmfP4TAnneZQIB9d/3nR8M9M6APSuXfOiGOO3AX7dz7P5Yt/ND3i2ztf6NKFhnPi/TfBQxrTdHgcXIy8Xgc3U309Cw4F0HFx0YfXe//NxxEXk6VrwceK7hhJFJeF2/AzxWduIn/erYGY2X1zE5+hAEMNKnHusfqwDQDXaNuXZfHE60HfbruIPeLbO1/VMlYZTrzJsogppNyoOeRkLjc9Ur0YILrrwLn5+bkYOPuKOdYrK6uXZcRGflaha2k/wUFq7Q75nIpjfjvdMhs/b2/hpKyLaSsR25tNeFwGMz0Y51taBrRtVf5ndtQ4cLc+OO21neoj3OhSn/bz+b4AHvRNju9zUgASEhvnsCA1fJk7iSzl575O5hh1bu0DcqaSSdT34uIrg4yiGXvftzUR3y3+J14mO2SCDyuMztxM3grLuhL8RAcx+R3d3fTYSiwB7xzrQCe91KEh7TTGbLz6tbjr0SCENJCI0zKcNenaWZ8faSp8vywJzleAiV4tyB2bzxSoorDmMbt+rH2JTplXllJkyjCLCwr14T5bgwmelbtYBgO9WM/j7vsZRSEOV4hy3KH/L8GATzTO8SPAYGl+QzxfvpQwXmYdd71r0TML4Z2rfS7P5Ync2X3yNwc9Tql5dVU79bzZfHMWcLuhdfO72ov2plMCwSfJ9T8esA3+uAycRmgITFy3DQ4xK2YgRBlAboeEzZbkgPYmwZ2wbLtKfLcssw4MkF5FO8p9oLbRoLxL/0/FOlyVqL5J/by+anbzRp3h/fV3fBbYgQ7RyMhDrwA/aFuLfrANA2I+Oqr75voEn6mM+sdDwupNEVX6qDZ8nQ2h4Gh/WDKHhq9g8gQfcuEj8NfH8tLG0F82f46JRGE1n2jaNtpKpfX8V+rm7GnoDCfphHXjQ+jrgYh4masBqw3cltnLCA4orDhMaXncSc1tOEzyWd8Kep4kT2Awn+N9nCA69G+09VK0+4EaFk4vE+21ExcmJ7yheKj5754VvhqDKsAJr70XrwMNW4eGJzhiYrCFCwyZRFxl0pc/NBHsZtzd6aBh3D1LMM1zb1j1LlZ8vyafJ8Lpd3tjEJkMA7YT+Dm3oVXiF05jakOe/s/liP2aJwqNFRddBJZ89VYYFu1HpOvU25Kd6F+MrDqwDMC1x3TzEWC/dLdSmz6KLb4/43zxZhkrDTK3J30WbUYZNUT4oyX6cuNOd4WT/ZnBpM5SkogXtv4VXOGXQDso/V23CY0WF6klhG53cR6VhodY23bEOvEz7WTa6AqZnqA1RdLZQkz7POXrJHoSGf7l5gIcquX6ImTGPk6HK8OqWi0dzDZOJ6sLzQjdbyGojqk2yfG+S1FpgmKHDoAvrXQoUIqoLrQPdehWjK1Sfw0TEKKYhCm1cD1OFAYosehmPJjT8y7VwJ1pML0d+TK1dJ1/3i4vQDFUC+zcvHhMNx1cF9tfMqpoCi2x+bi/EVUhzm/j8/beyUQCqDAuzNrvQOtCPtvrczFuYjiFuGKtiphZ9v5frCw3jwjJDS+ldlQIHt/y3ob1yd+VBWWY/3vV+yTDXcNKLbWXz07J7G+3KLhj5UwQ1nys8IkLDglgHBvM2gkM3LKF+Q6yDWpSpRZ/X5JexqW/nxq40zNqavLIfLadjsyHKHSJ4zjAX6/CeD2mGasPJzmuKSt2a5qeV4FVskuKGBzUHhleJdsnnHnHj6Nw6MKhXMbbCOgAVsyEKPE7M/e2zYK63AF9o+IdbQ534EsxQbbjhpOtOWY7LfTMVU1xUTvGOf9yV/KoNbTSffXdNW8WBYaPKsAwVztEsjXUA6jfEeig0pHR9F4L1VqgkNPzDfQfYhihJRQVZhirM0wdKgc01HMHahaI2tHG5YJyouFFRa2DYCA3zEximYR2Aii3PjodYD9+a80+p4py4z86/qz4/h6OFhgXMM/wuwqAhSq4f8s5smB/sJAmE7t25Od5fQ+ws9pDJvH8Ehum4YJyY+AzWHqpluSHELawD6VgHoG5fBnh2roUp1b15QQd6Peces9Iwy4f+Ma2jGVqUG7MNf5DheFw+codkcw0H4kIxrc9ufExDVAIcVf4ZPL3vhiPjsg6k9TlmOgH1GeJGofNIihPrXt/X4b12xwoNHxHmRCiUYQfc91GhOXlxtzpDpepj7xqkqEip/WTdhWJ6R77DJuEoyfdzn7QmJ2UdSO/ALqhQpSGudYSGFCWue/ouQDvte2O+MUPDLOHFY7/gssw27Lu0tRQZWlzaKsPHfgmYa9gzF4pFeBXBoZk0lZrNF3sTqWrWmpyQdaAIryI4tA5ARWKk12XPz8h8WooxYOdN7/nQKKFhnNRlOKG7fGADiz/FYMm+vwgf48PUT7QGGCT6WI++axBtbBneP1WGhhNph6zFWzc/6hTfzb9O4Kle9n1Hl6eLdeDAOlCEt4luxgPd6f2GmlE3FGR/gKD79JGj0l5krErDYlqTb8hyoTv12YYZqgyvnnHCm6Eypdadx04m0A5Zk5+1mNRlLbCZAlWGOR2pQinKh0RdR0A3hlgfjTcgvdl8cRDrXN8GyYX+PtIBLzU0PIoEmfYNAAAgAElEQVSgaOy72LtTrdSJuQBDfAAfcvSMIfgnSR77Vk3zuOJLecoXim0F682K6RLaQyexMc+E7E0ouDfPMJnZfLE/8e+UUtcBIS/URWjIpK11vw2xBn8cqvNFaPgEbUgUJ6Zjt1+9ajcCecI8vZpkCUuf8zgyzTWs4qI3NsTJEMT26SJ2ef+6eg89pQw9gvb253WcaK1+VGbSiWgV+nlCR1OlYSKxwVft778+1oE3QjugS+3Yr9l8cdVzgY0N9UgpRvANtRngxfLseLBcZPDQsMR5hjdkCA2bCK0mFRpGcp+hleXwOe+dWEgvE4Q1VbSFxkVQjTORLmLBOeliRkW8V1fv1z/D4vg8ba39uHjkuTJ9Dm9WXK1/hl7fqFB4zvnIl2dUmdOTgXYlHIN1ACjVec9VVjpVSCc2AhwqI7oaelzbGJWGpbYmfxfVhocJqps22rvrsUHLVOwmCZxfcoGSoUW5nWv45pmheSY1bXxyEe+ro6Felwg+jlYXkHHxvR2LkAtHHiWqfcd6v5zGd+r3CqzntmisVWFtRrC4dU+gqMowl5o2PrEOADU46TvYq+Q6hgrEefDQI3p2ht6QT2j4PHtJWiJ3JzZbKcMGKC/doSjTXMNiqzPibk4NFzTtDYj9DDuxxslXWzG2HxeOe3HxaCdSbhVVSkNWGV6uAo4ud4pbq8K69nfG52DzRhWWeYZJzOaL3UoqTjKvA7tx7mUdAB5riDDvzUC/B241UljY+mmMojGh4TNEm+mXpmnej/kE2pPltt07w4lm3+KDmWEG20uDtiyvVbGhYVzIZBgR8Fyrnbf3s7Y5xoXjToRCu4mqfMlliPfF1WoTsqHXurUwUVCYzNqNjZK1YeFe1mqZeFy7cZPOOgA81hDfaZsq/xlanHvsxM8YucRPY+1pMWhoWME8w3X7CULDZu0ucO0yXBxcvvSD2l70DjAg+DFKnmtY8vyq1BeJN0WouRcbQLloZN0qUO7LZXzvP2eneuq3X/B3kXUAqFbbCTCbL/p+eq+9gxhC5FdbCcZ2jBYYNiNUGmbYxKLp4s5EfCFeJGiR/NDeBa55rkPszJmhyrCr4PIkQeC8UeI8kNgls8R2tPa7YrfLlsohrV00HiS6YcK4+goOLiNQmdRGXzxenBOU+B10GXOISl8H9mMdyDBqBcip7wKJzUf8b+DJ4hxjfTTN2DfJ2s/S1tidpUOHhjXMM1zXnjR97ujveondnis+xpahyvCqwxa1DKFhU2iLcom7JX9anh1X8fmMkHk7wtuaNiDg6boO76+iBbn0llP6V2Kg/CnC8OKrZuM57MRNpIMkN3WBXPreQVmlIc8WwWBzYwO8NwnXs3bDv+0M5w5Dh4ZZKoQ6CQ3bSoiY9TL2G2wnqg2ra+GK2QEZ3jddzp/LUmVQVGiY5LP2FFdRVVLdPLT2OcVn80DVIR04jc+KoebcK9F848eqeR04ibYt6wAwtKmEhltx/cPD3sTPXUrqVLuKG41pimUGCw3XEt2xdTHPcF37Yv5n5Of0KvrsS6zCekiWL8rOwjVzDZ9ubUOOUlyMsR3+kCJE346TmZI3pmE86U6KSK+ki6fLqBCYwjqwm+BcGMjjpOeQZuzxYEN5V+hYJp7vMEZapSoG+9uAv6u21uSVg7jwGVt17ckRFGWYmXPYQwVMhouIjagSKEFJg9cvMsyeGEq0k/6U5HuQcqw+JwJDHqWwKsP2/b05oXWg/Rz/2zoAAM/ShoX/WJ4d72TsHhUavlC8qBlaPDfihLomWYLQPiobMrUol6CUUHwVhExqt9fYtGLLBSOPdDqlYJ3OlFJlONV14Mg6AIRJff/BM7Xr5ce1sDDtmJ4hQ8Oq5hnekKVSoppqw0TtqKc9fYCFho8UYXgJVYaTvFBciQDIBSMPaSu3J/s54XkKqjK0DlgHgAE6qhKNPoOn+tJW5y/Pjl+3HVslzPQeJDSseJ7hd/F3Hnb99z7D24q+QLeTBEW9VDa0A8T7+HufoYT3SwnVJZO+UFxxwcgD2sCwtop4hlHCTdFL64B1AABuuIqsqB3j8f+WZ8fbpW2QNlSlYa3zDNdlqTasZYelDM/jsudw77THv/uxXmWeaxghePbqktXumCqn/rpgrG7GKi8mMORZYo3KPvT+KjY9sQ78tQ5sJ3goADC0ywgJf2ma5p9RUdheKx6Vep4wVGiY5cShtwAoTpAyhEDvZvPFfduNpzebL7aTBEV9B5eqDR9WQshQ9S7JzxEzDn8p75HTE4EhL1HCTYhd68B1cdP1p0yPCQB60t48/BTVhJsREu7Xcm7Qe2gYs+my3CHuO6RRbdiNDBcIlxF89EloeI9Eu2ff51Np5eVDid00v0zj2XKPC4EhL5S9Yu3TAOcLRYrjkmF8DzAsN1GYmnas2s9N0/zWNM3/zeaLb7P54mQ2X+y1BVFxXVusISoNq55nuC7Cg8s+f8cjfSj1jRntqBk2zRniAiDLgvo+wWO4TfYLxTYM0YZ7v50k34mM47KgHdpJqICNsC4rGgvTl13rAEyLUQ3w/dylzTR+XQsSz2fzxX6Je1BMKTQcqqory8ljqWFGhoqUqyGqRmNBvej79zxG0i+v7KGhwPAB8R5XZTZdZrzxUtnXAfNsHxDHx3xDAKbubVQj/h6ViAeZ9xZYN6XQcJCqrmjFyLBj3G5p1YYxizFDO+qQQ0q1KN8i3rtZKyCbmNGW5bVLLY7Tp6kfhwn6aMYbHci8DnyxDjxOfBdYBwDgD68i9/hvVCCmLrLoNTSc2DzDdRlmG74q8M5ulsqtIatFhYa3y/zevVJl+GR7SW6mMIy2dV/LJi8Sm6JlZh14mj1tygDwgzYv+xzVh3sZC7/6rjTMEkRcDVzxsJ/kArmYi7b4cGRI2A/7nn15Q5bQMMMcyXWZZz3sa0d7mjheQqTp0JJOFzKHhh8HPlconnUAAO71KmYgfs1WeTiV0HDQYCZOjDLsqLpRwJ36lSzDzgfdAdFcwztlfd8OMu+yRrGbsiqT+n3SlkxHst48sg48U4zwsQ4AwN1eReXheZbrc6Fhf2yI8jQZHufpSPOJslxgpwjqYiBs1t0yVRm+jCqTul15jelCzDjeSHowh5x7XCPfEVC5EneHhYTexqYpo9+o/Htff/GE5xl+17atzOaLLwmGeL9rv7gzD+uO8tsMFweDVhmuOUmyAUyWBT7zicZY75EqtFUm7ayOxGEALyNUpyuZ1wGh1wtYBwAe7aMZ0d24EWS3OdVq1+LNtX/PWrTyczz+nbG6eXoLDRO1Fw49z3DdfpKd/3YSzc67TYYqw8tomxlDltfmbRv2J7joz7r1/BczrDrRfi/+p4LnwXVaNulS1nXg1DrQifYi+HMFzwOAAtxSQPXDKLkoetu88ZOlCK59HCdtsdXy7HjwMXh9tidPuTX5u3hzno71+9d8iFafdCI1z/BhHO0uTlyAZJnxk+Fzm7XCRJVhNxzHOqkypEvWgbod2VEfgEza89g2v2nnsC/Pjttwrg0N/1/TNP9uZ3YnuF5vKyF/G2OTFKFh/7KcYGYtbc5QZXiVYOOaLNWGGT63GVuWrsa4q1OjCJYOp34cKqTKkC5lubO/LsO5QhUSbRgI9CNlsQo8VQSJ7Szj3eXZcfu+/kfTNL+MHCB+HnrOYS+hYbIB1qOGMYl2ituOkts04n2SoX07Q4WM0DD34GQXN91yPOtyqMqQrsRmWBmdeJ93yjoA9eo9NMw8r596tR2CUYnYvsf/OWIhRDvncLDitL4qDbNc+I85z3BdhgqMVwl3Us5S/ZihGjTVXMMRf3/Wi0UXNx2Kqk2tafXQskmXrAMTYB0AoGRtztS2MUf14ccR1rQPQ7Uq1x4aZgliDpKcGA3e/36XCKYy7Bh8mGGoeTyGLCfPY25ilKoado27md1zTOtw6W4/Hcva1iY07J5jCnXKevMHOhfVh3vxvh+68vDzEMGh0HAA0c6SodpwY4zBmXfIUvWYadajFuWcw+9PtaT1wsViHbyOdC3jxeaFdaAXvj+gTn0XAVx435BNhIdt1vKvgd+j+32Pduk8NDTP8E42RLkuQ2h4mqHKcI3QMKcMIw5qpDqtDi766VrGinPfV/1wXKFOfd/8cROHtKIDZyt2XB5CO4buoM8RY31UGppneIsIpzLsGLox9mYTUe34aszHELLtKJ3l5Hkjwv8xvBv3qd/KRU0P4jsxwyZRPN+V1mR6kLHS0M2jHkT1poohqE/f13lCQ1KLXZfbIqmfBhpB9rbPbKPm0DDjhUyGFuUmQViWIaxLN4crQu4scw1VG/7FxWJ/HNuyCQzpQ4abijdl6kqojXUAKjJQcYrvDYqwPDs+iOvqIa7xf+7r8yc0HFCEQqcJHsq7sSrJ4o2coX09W5XhymRblEesbrxXshb22jjpK5vXj0lQUdsr3yNQlyFGTKg0pBiRAQ0VHPYyEq/T0DAGMJpneL8sYdVYjyNLlWGWGZM3ZTl5HiP8zxgaapvql4vFsglS6FTfg7yfyRiFflkHoC5DfI/73qAoAwaH7ZixzvOWrisNzTN8QNytznAC+mHoyq64GMgwsy5rYNgkm2uY8eJtaO5k9ksVZ8FUX9GDjJug+J7ql+MLdRkiD/C9QXEin9oZ4HHvdr0pSq2hYfYLmSzVhkO8addl2DH5KtFsyR8kuwg319CdzF5lvbnDo6i+YipcnPbICBCoTu9FKb43KNXy7PioaZqPPT/8V13nLkLDEURrbIYLrs5T6LtEVeOHIX7XA45it77MMsy9bISG36k0hNs5YWcqvNf75yYEVCCuK/seVZblOgmeZXl2vDfACKxOc57OQsNoZcyy410JLVMZWmTb12t7oN81dFXjXbJugLJuspuhMElO/sqkShToimAW6qA1GR6n72zkVZe/o8tKQ/MMn2Z/oB10HtJ7iBYpd4bW5MNCytmzhIavzDV0YgJ3UIULAKwbIg9w05LiRV71qefn0Vn+UmNoWMRg9miRPUrwUNoNL/pOuneSVKFm3gDlT+YapiI0hNs5aQcA1gkN4fH2ei4i62xjU6HhuKayIUqGKsPTwnb67HvOwWNNPTQEbqfSEAD4LjrL3vZ9NAq7noM7RRFZ3xu0dpLDdBIammf4PNEqe5jgobybzRe9hENRxdj3QNzHKKLKcI25hgAAQAmGuGYwB5va9J1RdLJ/RVeVhmmChULmGa7LEmb1VQ2YYQOUy9ixuiSZ5hoKDgEAgLsMsbmm1mSqEkVkX3p8Tp3sUdBVaDjUDrwPKe7uQ5RYZ3jc72fzxZsu/8IIm951+Xc+Uwk7Jt9krmEOAlMAALjfEOfMWpOpUfpqw65CwwzBUFPwF0mWKriuw7UMVYZXSTaceZKYcWCuIQBTYlYmQGGikmmIcVRCQ6qzPDvuO6t48bX8i0PDZK2LRX6RROvsZYKHsh1DbF8sqhY/jPt0vtuPAK5EWd7PQ90UsFMxwIQVOGIGgGEKRU4LvqaDh/TZovzia/kuKg0zzTMs+e5DhhbaVx3ONszSElzaLMN1aS6ehrg5EDMdsulkm3rulaVSHeA2qu371+l4HGBwQ4wqU2VIzXp9f7/0Wr6m0LD03ZSOopV2bC8ODaNaMcOcy8OkQdRjmWs4vk4qbwF4tAznQgxriLZGoAcDtiYXN24KnqDvYqEXFcJ0ERqaZ9iBKLfeT/BQ2h12XlpivhtVi2MrcQOUP0XgmaFtvRkwBM4W/qt+6FEXu3kB1cnWoqwaukddb8IHDK6rLrX7XBpfQc0G6Jh90Vr7otDQPMPO1bIhSoYNUE4LrzJcyfK+ftvVvMvCqH7ol0pO4KZ0M6smuv4NRWgIhRqwu0yVIVPQ5yaoo1YammfYoQi5DhM8lI3nBsJRpZghaCm6ynDN1FqU032Ok90cqY1jC9yUsZpEVXR/HFso1/ZA3WUlz6iHx+rzpqnQsIJ5huuyhF3PfRwZHv9lDSFymFpomHFXNBc0/XFsgZsydgm4wdEf6wCUS2sydKfP6/4XhfvPDg2jHNk8w45FtWGGEPTdU+eNRUWWKsMOJZtrOMRFkwqTaXFsgZvspD8tji0UKK773g7wyFUZQgdeMkP4JZWG5hn2J0vo9dS7R1mqDGtbXLIEaUPMNcwYGqow6UG8l8yMBK5J2ilgHehBrANDhA5A94a67hMaMhV9XwdPOzSsqBX1u3g+fQ7CfKwPj02k43+XofK0xoVlMi3KsYt4lsrKlQ27O/bCRThwl2zrwCu7vffCOgAFGvC6r5aNLeExMo7p+q6G0LCmeYbr9pM8jsdWG2aoMrxKdNy6lCk0HGKHNNWG0zDEewkok2rDaXBMoUyqDGFCnhUaJmsnqK01+btosc1wp33noZbU+L9/GO4h3ekoKtWqEsN/r5I8p6nONRRwdc/FInCXjOvAToLHUBtrKxQmqq6HuO6rceQUjGnw9mTzDIeR4Yvy1SNOlIfYOesxqtkA5RZZ3udDtOpm/Ey/H2Ce42TECad5hsBdMq4Db42q6I51AIo1VFeXwBC6Nd3QsLZ5hjfsJ6kwuzMUjCAlQ2h4WPnMiynNNcz6mVYR0Z0sNxqAhJJV2K+zDnRH5SYUJnZMHmKWYa0jp6BIpYeGtc4z/C5abTPcZWmry+46uduOasSx1X43KlOr1hCf/4yfbUFXd1x4Aw/JeANJ0NUd6wCUZ6jrrYMaR05BqZ4cGppnOLjsG6JkaAk+rbziNFv13RCh4dEAv+Op3to98+XiBkSGGw1AbllblM1jfaHZfLGtNRnKMpsv9gb83KoyhESeU2lonuGAouX2MMFD+eFEOdFJ31RmXmSpvpvqXMNGtWEnHEPgMTLePGpUG3bCOgAFifP+oT63tY+cgrv0nbM9+3NVdGhYe3XZmiyh2M3FIsNJ35R21sr0fu+1rSjmWWXYPfymDwbhP1/ceMhSqQ4kFheNFwkfoXXgBQaciQZ052CgLpErNxWgN4OGhllmkFQ9z3BdhKMZnu/71YlyopO+mndMvkmLcg5Tes91zbEDniLrzWHfZc/n2EFBZvPF7oDXfPtmGTJhacdgPSk0jMAoywySqVQZrmSZ7bA62cvQnnOVOFjq3ATnGmatIFVl8gyqS4BnsA5UxDoAZYlZ3v8Z6EHbMZmpS3te8dRKQ/MMR7I8Oz5K0q75IRaQDwkeyxTvRmWpsH3V96YgiVuUGyc1z+KYAU8S60DGFuVmQvOUu6TKEAoRm58O+T23q8qQiet7hNP5c/8fiw0NJzTPcF2Wk60sx36KJ+zP/rD3YMrVhu/toPl40dpiliHwHFnXgXexIRyPEDvnqzKEcuwPeO52OqEZ9fCDIa4rXxLKlxoaTmae4Q1HUbo9tiEG4T5kqjtraVHO4yDuwnKPaOFTXQI8l3WgcHGMVJtDIeJm75BdZTY/Yer6vq5+Uffeo0PDZPMMM1VbDSbSYSddf5hqCDGp0DCC4S99/55n2vB5fJShdtwDKhTnPodJn9krbcqPYh2AQkQF9VBzDFsfYxQFTFnf19UvKrZ6SqWheYY5CCn+KGGfYpXh6uIpy3ynVwO16Ga+IPsQLVfcYuAd94B6ZV4H3lsH7hbrwPusjw/4S8wrH/L79tK1LVMX1fh9Xy+9KJgXGhYm+R33oUy91XFq1YZZNgG6y37fm8KUKALlIe9UA5WKOdZZN0RpfbYO/GjgnVeBF4jP68nAVcHbNj+BZogbj5MLDS98uUw6NLuc6CY466Y217BJ/p5vT66OzLX6S5x4HmV5PEAVslejnFgH/hLHYurna1CEkQJDbcnwhzpCw2TzDCd/AhKtuVPdDGbqVYZNspmeg7Sexo5qmasNN1ww/iGOgflVQKcKWAdeWQf+sBYYWgcguZECw3bUlGs6Ji86s/repfzqpQH9YysNt1/ySzo2+dAwTPGL9tJ2/H+GxmkunAaaa9gU8J5/O/ULxrULxb4XP2CarAPJWQegHCMFhlfJsgUY0xDnNS/Ozx4bGppnmEwB8336MPnAcM3kWpQLqDJppnzB6EIR6hOdJmlYB3KzDkA5RgoMG3MM4Q9ReDNE197kQkPzDK+b0m5TV3bXumaKcw2bQipsVxeMqS62+7R24ulCEeqS8XtsN8FjeMhqHZjM5iix5lkHoACx4/t/RwgMfzGbHv40VLbx4jnzD4aGccKTZSaJL5k1hdxx78qRwPiaTJ+Fd0NVVMR7voR5nu1F0/kULhjjLpkLRejO10THMl1oGDvql7IOnAw4wmM08RzPrQOQ32y+aIOKzyM80MPl2bECEPjjc7g30Jp5EaPNXuQxlYZak3ObypevYblrss01VG14q/Zmy39jUahSPLffDbuHTmUKDbPe+Cih2rCJ78bfK18Hdq0DkF97g382X7TX0j+P8GDbjU+G2CEW0ouikl8HepydjHcTGpbvIFp3a3bYRUJeoUm2KEdbw6ehfl8Hfm1P0mpqV26fS5x4DrXgAeNIOaw+dgEsbR04r3Qd+E+ChwPcYzZfbMcNqSHmp910YeMT+EN05724XfgJJhcammd4izgmtW8QYgOU271o6/SODf09sVdYWP4u2pWLrzaJ53A+0oknMKyNmH2V0V5hI1raNqT/td+hpW+SYh2AMkR1YduV9ttI1cBtYLjlGh6ubRa2MdDhOOzqs3dvaGieYTFqblE+NTD3TpmOy9shL4LiC7C0NodXUW3yNfFF+J3ax9w+9qgu1IYG07GfMeQqdB1o4jv03DoA9CmqC89Hakdu4ua+nZLhL/sDz/7tLCN6qNJQa3IBonX3sNKnp8rwDtGelanabtDvixiGX+L7vr279LmU8HDtIvHzgHfGYMoyVZE3EQ59jQvQW0Wr6lbMtxtMgeMqVq6tA9krD60DUI610QG/jfh5vYoKQ+OlmLyo+G2vWz8MeCxOIyvoxN8f+EuEhuXYH/iNOITL2C2Xu7Wfi/dJjs/WwDMamhiGv1XoRczqonE/wvH9LCdXMXdrJ35cIMKA2qqM2XyR7ZC3weFvs/ni6kao+frmXfPZfHEwcGXJXqwDJe7cuxFBXFvNaR0Ani1uPuyNWFm40rYk73QZWECp1lqShz5H6XQk1kOhYZYwwjzDB7RfzLP54rSy+TJ2TH5YptBwe+gdLePiuv29/x3y93bsVZzg/TybLy4iQDwZ+mQrLhC34wKxxItvqMlV0vbPV484z9gc8kZvrAM78TtLbZnNtg5sm1cIZYhQYjd+xv4ONMMQQtuBEQU1Q38uD7se73ZnaBhPMgtVho+zX9FJ3tUIVWslyvTZaAfmvxm6SiIC818q2cHx7ep5zOaLy3h924vG866//GNm7WZU6JRarQm1KnmTia2h16ZYB3ajaq90Y6wDmxEUWgegEGvVwBnCwkZgCH9YC/J/HeGQXPVReHVfpaHQsDDtjLc4wazhpG/fovOwuFDK9JC2xphDuTw73o+Ln5pa9Dfi+Xx/TvE6tydk39a+E7/Gz31exwVhE3++VkEC6X0t+HO6+Yj/TefacSZxw3sq68B5/GkdgAmJ77mdZN917YzxXdduTF18Pg9GzGP2+ijgERrWZ6+SO+1mGT5eprb0UULD5o8Lxp0IDmturV09Nxd7ULeSh8ePdv4Y68Cbyr8jrQMwMWujA3YTFod8XJ4dGynFpEVYuDfy2txuftLZjsnr7ts9OcvJiHmGTxAbh2TaUfc5Du229SSZQvWxbzZsRRUG+Z16jeBOJd8sfRUXuGPZtg4UwzoAd4hdkHdi19X/xdiCTIFhe735b4EhU9aGhbFb+e8j52dXcf7Ti1tDQ/MMi9dLwjwgi8/TpJtrONYvjxsM2xUE57X75Lsd7lX6rpOjtCg3f60DbiDl98U6ANdFALE3my/OIyj8nGjDw3Wr+YXmzzM5EejvzuaLrwnCwpXtPgvt7qo0FBqWreTQ8FSV4dN0PRi9A6N+f8T7Z0twmNalGwNwvzjxuyz4MI0WGjZ/Hb8d60Bal/H6wGS1myWshYQns/niWwQQvyYftXMYgWHpN7fg0daCwvOElb8/9Z0H3DXTUGhYsPZkeTZfHBY6DFyY8DyZ5hpujz2TMjaIWe3gmWFHOf6yHd9RDgnc76TgTT1GP4+0DqRmHWBS4rvo9dpu5ZsFblzZ3oTZUV3IFMSc/M04n9lK/Hn9FOPpenVXaGieYfn2CrzYuExYNVeKk2SboYzOBWNKP7kzDY9WcmiYYj1aWweOCrxAr9Uv1oHibQp8f/Amfpobu5XXsmHRlwgMXZdTjbbaNz6rqz9Xn+NSPrftPhC7Q/yiH0LD2XzR2wDFZxAgPVPbojmbL74knYNxF1WGz5fpBLwdgr+Z4aJg7YLxoPJdlUtwOMSdMKjIUcyzKlKydWAzzimtA+M67GtnRwb1H4d7MlQXjmsn2V4TNXhdyblAu54ONubjtkpDrcn12C8oNLwUKLxIxrmGKYLMGxWHLhjHMejCBjWI9s2Lgr+3NhOtA9+sA6P7Yh2AorSb1u2pLhzVhip5bvHT0LnJbRuhZAoNtS+8QLT6nhbycAWGLxALeqadIlPdFVvbTfMwwcOZGoEhPF/JVVnp1oHl2fGmdWAUFzY+gWK0147/bNseBYaQSlv5++8xCq2uhYbR153lDuylXXQ7UUIYd1X4hVEWmaoN05XSxwVje9HyS4KHMxUCQ3iZo4J3AB51B+W7xHfSTxkfW6UuYqdV4QPkdhmBhJ2RIZ92Ld0ca1TAzUpDrcmViST6MvmzOnIy2YlMn5lXMUMqnZin9K+CL8RLITCEF4q1sdRZUmnbgOPc6J8FnB+Vrl0HNp3jQWqX0e74xuxCSOljrKWjFdQJDachexWfDVC6ke0zk2lTpWuidf9N7AZH9z4KDKEzxa6RmQe4RyXNpnWgN5+sA5DaelhoTBTkcxGjAkY/DxQaTsNB4qqqQ23o3Yg7+ZmqJlLv9hXtym2w+W9Vh525ihNQNwKgI7FGljqHL2XF+Yp1oBerdWC3wlYEVwcAAAPaSURBVOcGNTgVFkJq7Tr6S1QXphgV8GdoaJ5hvSJMylptaLHqVqaw/V2Cx/CgaMVQdfhyq7lVPtPQvd1CQ63UN49W1tYBm6S8jHUA8mq/3/4VMwt9RiGf9jzvY3s+EuO00livNFRlWLeMi8NptInSnVTHM3Nr2rq1apN/mXH1LB8z3Q2D2sTNvxIreFNXGq5b2yzrXxF+8TSfIjC0DkAeF7EB4P9rv99cd0FK62HhXsY5wELDiUja3uQuV/eyfXaKCA1X2pOptl0jdtbUqvawNLM2oHZx17m0iuiN6GQpRqwDm7EOuIn0sIuoXtq14QmkcBkh/j/jhu6+zyakdBnnGmnDwhWh4bRkKnO9VBrfvQiHzTV8oXhvvom7PsLDH6WbtQETsVNgFVzJ68CmdeBO6+uA83YY13pQ+CZCfOdnkM/V2qiA73NFSwj1v4eGs/nijXmG9YvF4zTJE1WZ1B9zDTsQrWp7a+GhipPEszZgCuLEcquw4LCYFuWbbqwDKg//YB2AHE6j9VhQCLmtgsJ/L8+OX5c4KuDv8acqw+loT35/H/nZth+coykd9IG1n6EPWR7MbL7YjiHzRVqbJbY3my92otKn2DD0ma6iUlmLC4ys/QzGvNiTRDd871NkpeG6+N5rKw8PrAPWARjJaXzvn6juhfSq+rwKDSemfdPO5ov2TvnGiM/cCWe/st1l3KolJI52tfaicTMuGtufVwkeWl8u4iLxyGcW8lgLDtvvpPfJX5piKw1vs7YOvIldrbdHPqfq22XcOLMOwHDawOFrnNOfqCCE1C7js3pea6gvNJym9uTv84jP3CzDHrUnFrP54ipRmFV8lclNcfLWXizutpWUcdG4XUmAuKoE3neSCnlFgLM9my92Y13P+v3TBpyvawucYpSOdQB4yefsPMLBVUD41WcO0rpc/6yugsIp3FD7e9wpzXKH1DzDAbR3yWfzxf5IJ7aHXuNBnCSqPimhfe7ZovX6eyVlVP5sR1Ba0vO+jOdwUnIrOUxRO1duNl8cRFVwltEUq9DpaArfKRWtAydTec2gY1d3dPqc3PLPX10LwehWAeC6bzc+x6vP7CSCwfvMlstl3kcHUKi2siYuGreiPS/T/Kur1ZwNbS9Qj7gRvBqdMPQN4Yu17xShk3UAAKiA0BBgIDELcTN24mwvIl8PUIlysV5CH3fL3OGGysX3zarireuw6tr8HnfhH886AACURGgIMLKoRlltFrAZF5Erb+LnLjfnwCqlB34QVYhvbnzH3Py+Wbf+3bKaufVNRVo/bqwDN7/3H1oHzqOtakUbJADwck3T/H/n1yI9CSct0QAAAABJRU5ErkJggg==;" vertex="1" parent="1">
          <mxGeometry x="640" y="510" width="188.87" height="154" as="geometry" />
        </mxCell>
        <mxCell id="59H46sRm7DmlmpqxXPBq-8" value="" style="shape=image;verticalLabelPosition=bottom;labelBackgroundColor=default;verticalAlign=top;aspect=fixed;imageAspect=0;image=data:image/png,iVBORw0KGgoAAAANSUhEUgAAAgAAAAIACAYAAAD0eNT6AAAABGdBTUEAALGPC/xhBQAAACBjSFJNAAB6JgAAgIQAAPoAAACA6AAAdTAAAOpgAAA6mAAAF3CculE8AAAAB3RJTUUH5QEfAR8KkwrDXwAAAAZiS0dEAAAAAAAA+UO7fwAAPdNJREFUeNrt3Qm4VlW9+PGDEmIPUKbkQ2ltEBUtHK9aKnZNUG/izUoLU4HyJpbZP285FOnZh0EUMBAnyBDnREOo64Q4i8wiiggKEoIMchA477vfeVj/32+/WwM5HM7wDnu/+/t7ns9zHOCc96y91vqtvfcaamoIgvBFJGxrL6fO6hipszpF66wDxIFR2/qasEQPcYQ4Uv57HzFIyZ+/Rr7eLv99knhKLGjCamH2YPUevsdT7s+Sn+n97EGePu5nK3zGHt5n/pr7O8jvor9TbJi1j7GtdlxpgiAIInQRHWaprpIUDxKaME8Q34nYVn/5erG4WtwoHhLTxevibbFKpJuRwCst7X3Wt73PPt37XW50bOu3YoD889niNPmdj5MyOFTKo1u8zuosAyAqCEEQBBH8yNvWPpLcesqd8smS8M6ThPcr+XqDmCIeFS+KN7y77kgAknux1Iv3vScKT4sHxQRxvVdG5zv6REHKTsuQmkQQBEH4NuTudX9JWHpH+8ld/F/F4+IV8ab4l2gQuRAl+pbKeWW0Viz1ym6aDArukK9XyKDgLCnjowSvEQiCIIjyh2Nb7cQxkpAukcQ0VhLUs/J1ufjAu7vVu/ksCb2orxW2iQ1ijVgiZT5NvtZG6qzz5Gtvh7kFBEEQRJGSfHtJ8J0l0XSTfz5MfE/u7usk2cwUCZEnMftC3pNwr41cI71Wes3cayfXUK8lNZogCIJoNIwkiegwd+b9UZJI+olLxeho4e5+PYk2cNZ71260dy37uddWrrFhQEAQBBHuiNRZHSUxHC8GyF3i9d57+9fEJpEhiVaNjHdN9dr+1bvWuhrheK0DtASCIIgQhHT++zmFNetXeZP0Fnp3i2kSZajmFKz3rr3Wgau0TmjdoIUQBEFUUWRtq4vc6X0/YlsTvU5/ndhOIoRnu1cnFmod0bqidYaWQxAEEaDQHeekE9dNdk4Rf/SWkqWYtIcWTixMeXVHl3SeqHVK6xYtjCAIwiehW8vG66wv6Da00kmfKV9HRAobzCRJZCiSpFenRnh17Eitc2xrTBAEUZnE38Gps74pnfFgp7BRzEveGnzu9FHKJwNax17y6txgrYNaF2mRBEEQpU36e8md19e9PfMni7liM4kJFbLZq4NaFy/Wuql1lJZKEARRvMT/ebnTOsfbQ/897y6MZXrw0zLDeq9uTtG6qnWWlksQBNHCiNvW57yjcE+O2NbN3hawOR7vIyCvCbSubvDq7slal7VO07IJgiB2E3LntJ90mMc6tjXEOyUuQkJBwGkdftqr08dE6lheSBAE4UbCttrFdIlVYWe22711+jzeRzW+Jpgv9Xy81nWt8wlWERAEEcbQmdOxOusY6RSHi1nezmwclYswHHm83qvzw7UNsIqAIIhwPOa3rX2l4+svd0FT5etKESMpIKS07q/02kLfBAMBgiCq7E6/ndzl7Cud3MGROuty6eiWMqEPaHTi4FJtI9pWtM2w0RBBEIGMRCHx66S+U8QfxFs84gea9YrgLa/NnKJtiLkCBEEE6TH/fnIX0z9aOHznbSb1Aa2aNKhtZ6K2JU4qJAjC1xGps7pKh3WJ+JtYRScOFMUqr01dom2MnoYgCP/c8ddZHaJ11pBIYVtU3REtS6cNFJW2qXq3jUlb0zZHz0MQRMWSvnRG3eTrYPm6gvf7QPnmCWib89peNwYDBEGUK/HvJXcgvaQT+oWY7Z2bTqcMlF/Ka4O/0DapbZMeiiCIUiX/HnLHcYV0OM+xfh/w1X4Cz2nb1DZKT0UQRDETfzfpXK6UTmam2E6HC/iSts2Z2la1zdJzEQTRlsT/yeS+edKxbOM9PxCIfQS2uW2WyYIEQbQo6dvW3tKB7C8dyAViOTP6geCuHNA2rG1Z27S2bXo4giB2CWNbNTHb+mK0sIHPo8KhAwWqguO16f7axrWtEwRBfBrROquPdBDjxFo6TKAqrXXbuLR1ejyCIPQ9f8+IbQ2VjuENtuwFQrHF8Bva5rXt0wMSRBjv+G2rsxjkrSOOcjofEKrTB6Ne29c+oDM9IkFU/3v+dtE6q4tjW2fIHcAL3gQ/Ej8Q3oGAThR8QfsE7Rs4gpggqvOOv6M08pPk662RwpI+OkAALq9PuNXrIzrSYxJEldz1x2yrW7Swkc8i3vMDaGJ+gPYRV2qfwdMAggh4OHXW6dKgp3un9NHJAdgT7Suma99BD0oQAYyEbX0hWpjd/z47+AFoxY6C2ncM1b6EHpUg/H63r5P8bKtTtM46N2Jbr3FSH4C2njjo9iXSp2jf4vBagCB8+a6/vTTQo8VYsYWOC0ARbfH6lqO1r6HHJQifhIzQv+yt532VjgpACWkfM0j7HHpegqjsXf/eMdvqLQ3yLrGRNf0AyrB3gPY1d2nfYzhgiCAq8r6/vXdwjy7bidMxASijuNf39Hd4JUAQ5YlE4bjertE69+CeNHf9ACr4NCDt9UVdEzwNIIiS3vXr/v19xdPeNr50QgAqLev1SX0dzhUgiKK/69fd/L4qDew6sYJ1/QB8uG+A9k3XaV/FLoIEUaSQRnWsmCG20tEA8DHtox4Rx9BzE0Tbk/8AsYy7fgABkfb6rAH04ATRwogUJvodKiaJBjoUAAHU4PVhh0aYIEgQzbrj1+V9Z0iDeZKT+wAE/YRBry87I8pyQYJocrJfB2kkA8VSOg4AVUT7tIHax9HTE8RnwrGtL0kDscV6OgsAVUj7Nlv7Onp8gvgk+ddZh0vDeFBE6SQAVDHt46bIIKA7PT8R6ojZ1r7SEL4nDWIBs/wBhGjPgAXa9yVsqyOZgAhdRAqP/H8rNtAhAAgh7fsui/BKgAhTROusnlLxR4sInQCAEIu4faH0iWQGoqrDFNb3HyceEg6NHwDcvnCqY1sncrwwUa3JX/fzP0kq+msiQaMHgE+lxFwZBPwnpwoSVRVSqT8nlftHEdv6MMrxvQDQmHykcJbA+dJn7kvmIKoh+e8nFfoiqdgf08ABoGnSV26TfvMap846gAxCBHmy31ekQt8gttCwAaDZ9IbpJhkMWGQSInAhFfcgqcC3kfwBoFUapB+dGLOtQ3QOFVmFCEQkbOtgqbzPMNMfANq8QuDZpPSpZBbC7+/79SS/b4mFTPYDgOJMDhTz47Z1iMOJgoRPk7+e5NcvYlvLSP4AUPQVAtq39nM4UZDw2fv+z4vzIoU7f/b0B4DSnCGwWAyQQUAnMg/hhzv/faRCDhYrSP4AUHKrpd/9ufa9ZCCi0gOAAVIhN9IoAaBsNmrfSwYiKnbnLy7UpSo0RgAo/zJB6YN/Gq1j10CijCEV7otS+X4R5ShfAKikenFNxGbXQKI8E/4OkAo3NFrY158GCAAVHgRIvzycQQBR6uTfSYzwRp00PADwzyBgRITVAUQJBwCa/LfT2ADAd7ZrH02mIkp155+gkQGAbyV4EkAU9Z0/d/4AEKwnAcwJINo22992Z/sP5Z0/AARudcC1jm11IZMRLQ5vh79fMNsfAALpA+nHL2XHQKI1A4ALWecPAIG2QftyMhrR7Dt/b3tfdvgDgOrYMXAATwKIPU34+3y0cLAPe/sDQPXQPn2g6EimIxq78++gR/pGC6f60WAAoLq8LfprX0/GI3ZM/u2lYvSTAcDCKEf6AkA1ynl9fD/t88l8xCfL/b4lFWMZyR8Aqn4QsEwGAL3JfERNwrYOjhZGhXkaBwBUPe3rF2jfTwYM96S/g6QiPEPyB4DQDQKe0RxAJgznY/+viNuEQ2MAgNBxvBzwFTJiuCb97ScX/QaxhUYAAKGlOeAGzQlkxnAk/8/JBb+I5A8A8HLBRZobyJBVHMa22smF/lHEtj6m0gMAlJcTfqQ5gkxZncl/75htnRThcB8AwK6DgA81R2iuIGNW36S/48RrzPgHAOxmZYDmiOPImNWV/HuKh0SCSg4A2I2Elyt6kjmrY63/l+Rijma5HwCgmcsDR2vuIIMGOGK2ta9cyN+KCJUaANBMmjMuS3B6YKCX/H1PLuIGKjMAoIU2aA4hkwYz+R8eLezxT0UGALTGAskl3cmowUr++t7/wSin+wEAWk9zyBSH+QCBWe/fQS6YLaJUXgBAG2kusTW3kGH9vNyv1movF2qgWE+lBQAUyXo3t0iOIdP6c7nf3nKBzhBvU1kBAEWmueWMCDsF+nKzn0PlwjxJJQUAlIKXYw4l4/pvADBJZKikAIAS0RwziYzrr3f/A+SiNFA5AQAl1qA5h8xb+Rn/erzvsWIZlRIAUCaac47l+OAKRsy2vioXYQbr/QEAZd4fYIbmIDJxZTb76SwX4DqxlcoIACgzzT3XaS4iI5cxEoUlf33FCiohAKBCNAf1TbA0sKwz/g8UL/LoHwBQ4VcBT4uuZObyPPrX3f7Gk/wBAD6QFeM0N5GhSzvrXx/99xdpKh0AwCc0J/U3vAoo4az/Wqu3FPIikafCAQB8QnPSIs1RZOoSRMS2viwFfJeIU9kAAD6juekuzVVk7OI++tf3/oPERioZAMCnNEcNMswHKNqkv3bRWutoKdTZPPoHAPj8VcBszVkOuwQWZclfJzGWigUACAjNWZ3I4G0fAJwrtlChAAABoTnrXDJ423b8+0LEtuZQmQAAQaK5S3MYmbz1d/9DRYrKBAAIGM1dQ8nkLZ/1386xrdOl8N6nEgEAAup9zWUcG9ySDX9sq5sU3PQo2/0CAIJLc9h0zWlk9uY99u8orhT1VB4AQMDVezmtIxl+z4/+T4oWtvul4gAAqsEizW28Cmj67r+LmCAyVBgAQJXIeLmtC5l+97v+nRGxrW1UFgBAlS0L3KY5jkzf+N1/ZymgF6goAIAqHQRojutMxt91ADBIZKkkAIAqpTluEBl/50f/PaMc9gMAqG7uYUGa88j8hZn/HaRAbBGlcgAAqlw0wg6BbvLXR/+niSXc/QMAQvIUQHNeH82BYd7x74tSCONY9gcACNmywHGaA8P63n9vKYD+Yi2VAQAQMpr7+msuDOOs//3Fo1QCAEBIaQ7cP3QDgIhtXSC/uEMFAACElKO5MGyP/zvIL72ciw8ACPnmQMs1J4bp8f8QNv0BAMDNhUPCcvf/Ffll53HRAQBwzdPcGIZ3/7+JcuAPAACf2Ka5sdrv/nvILzpT5LjgAAC4NCfO1BxZrcl/LxnhXCG/ZAMXGwCAnTRojtRcWY0T/3qJ57nIAAA0SnNkr6pb9ie/1C9EjAsMAECjNEf+oqqWBUZsq1u0cNwvFxgAgN2brTmzmp4ADJZfKsWFBQCgSSnNmdW0698KLioAAHumObMqXgNEC7v+sewPAIDmLwscEvR3/13FXC4mAAAtegowV3NokO/+LxH1XEwAAFpEc+clQX33v598+L9FOfQHAICW0tz5N82lgUr+CdtqF7Gtc+XDr+IiAgDQKqs0l2pODcwAIFa4+5/IxQMAoE0mxoLyFMDISEU+8CliGRcOAIA20Vx6ignCUwAZqezr2NYf5ANnuHAAALRJRnOq5tYgLP07WD7wW1w0AACK4i3NrUEYAPwyysY/AAAUS873SwId29pXPuRSLhYAAEW1NOHn7YHlA/bn7h8AgJI8Bejr19n/eujPVPmAeS4UAABFldcca/z4FCBmW8fKB1zJRQIAoCRWaq713c5/8sGGixgXCACAktAcO9xXOwPGaq2D5EPN4uIAAFBSszTn+mnp34XyoTZwYQAAKKkNmnP9dOrfHcz+BwCg9KsBZAAwXnSp/NK/Wus4+UALuSgAAJTFfMm9x1Q0+cdt63OObQ2Jsu8/AADloucDXKY5uJIb/xwonuZiAABQVtNF10oOAE4WES4EAABlpbn35ErO/h/NRQAAoPw0B1dq69/PywfYyEUAAKAiA4D3NRdXYvnfOSz9AwCgYrKai8t9979XtNa6N8rBPwAAVEpec7Hm5HIu//u6/OD3KHwAACrqPc3J5dz852L5ofUUPAAAFVWvOblcj/87yA+cHGXzHwAAKk1z8WTNzeWY/NdbfthcCh0AAF+Yq7m51Hf/7aK11s/kh22mwAEA8IXNkpsHlXry3xecwsl/FDgAAP5xS6SUewLICOMo+SGvUdAAAPjKczIA6FXKrX/Plh+ylYIGAMBfqwEkR59VquTfSX7AyCib/wAA4Deam0dqri7FAOAgsYBCBgDAfzRHa64uxdG/p4gkhQwAgC9pjj6xFAOAoRQuAAC+dnUpBgCvULAAAPjaK0VN/lnb6iLfNEXBAiFU16PA7k5ZAP6X0pxdzAmA5zH7H6g+zqjexhnzH8YZf6qJ3f5dE7vzTBO/+/v/NuUnJvmPq03yn9eaxAMDd/p/+mdjt59hYreeZpyxJxrnpt4mOuwQyhWo8GoAzdnFHABMpFCBgBvW08Qk0ccn/9Akpl5uEtN/Z9JzJpnMm4+b7L/mmNxH75r8tnWmuZHf9qHJ1a8y2bULTWbZEyY9926TfGKoSTz6KxO/5wL3Zzkje1HuQPlXA0ws1uE/+8k3XEihAkG8w/+miU86x03M6Xn3mMy7s0xu0zsmn9guGTxvih7yPfPJqMltftf9WemFD5jkUzeY+JQfu5+FawKUxULN3cUYAJwm32wdBQoER/yvPzSpl8abzApJ+BuXmXx8m6lU5BMNMiBYaTIrXzKpV2438ft/aqJ1zCcASmid5u5i7P9/lXyzBgoU8Kvu7uN9fZef+Oe1JvP+qybvbDEmnZDsmzP+ibwxmaTJx7aa7LrFJvHEn4wz7hQTHX4oEwyB4mrQ3N3Wd/8d5Rs9TmEC/pyd74w+zsQn/8ik599r8tGPTNBCn0xklvzdxO+90DhjT/BWG3BtgSKYJvZpy93/8fINFlGQgM8S/5+/5U7kyyx+xH3EHvTIZ5Ims/QfJvHoL93fjYEA0GbzJIcf3ZbNfwaI9RQk4JNJfTd+wyQev0qS5T/ljn9zaSbyVWwUkDd5p95k3v4/k5h+lft0g2sOtJrm7gGtSv7Gtto7tnW9fIM0BQlUnq651+SYj2zy2bv9Yg8Ecu7vmFn5oolPuYBrD7SO5u5rW3v3f4CYTCEClXzc3929E069OM7ktq41Jpc1oQl9ItCwwaRmTzSxCd/htQDQcn8V+7dmAHCUmEMBAhV83P/Qz0x2zXxJ/BkT5tCljDrnwbnpKOoG0Hyaw49qzQCgn9hEAQIVeNw/4T/ddfzu436i8EAgttXdzEi3IKaOAM2iObxfSzf/aS9/6VKRoQCBMhrW091GN7P8GWOyabJ+I5Fd9Yr7ZETLijoDNElz+KWa01syAOgsf2kMhQeU0Y1HmsT0/zW59W+G/pH/niYJ5rasNslnhvNKANizMZrTW7IBUDf5S7MoOKBM7/tvOtqkXrjFXQZX1TP8i7irYD7lmPScu40z5njqELB7szSnt+QJwGGs/wfKlPzHnWzSix4ip7cy9IwBZ3wfVgkAu9kPQHN6SwYA51BoQJnW9i9/lize1kHAey+6Jw5Ghx1CvQI+e5NhW2e2ZAXAMAoNKHHyv/Msk1n2lDHZFBm8zW8Esia77nUTv+8iBgHAroa2ZADwLAUGlPjOX5N/JkHyLtpmAZnCIECfBPA6ANjRs819/N9O/nCCAgNK9c7/FJNZMYtlfiV6EqCbBsX/8t+GI4aBTyU0tzdnAHCM/OE8BQaUIPnfcqLJrplHoi71XgHr3ypMDKTOASqvub05A4CBFBZQguQ/9gSTXjyV7FyuiYErZpkYgwDgk4mAA5vz/v8WCgsocuMb9U2TeuV2Y9JxMnPZRgBJd3ml8+dvUQcBye3N2QSIDYCAYhp2iEn+87rCJj9EeacExLeb1HOj3YOVqIsIM83tTSb/hG3tL39wOYUFFEt3E7//IpP7eI27ex1RgR0DI5tM4rErWB6IsFueaOpoYPkDx4sPKCigeMv9sqvnkIcrvUKwfpWJ3/19VgYgzDS3H9/UAOASUU9BAUUw4nCTnn8f2dcvUwKWPWGckUdQLxFWmtsvaWoAcI2IUFBA28Uf/rl7YA3hl7WBaZN4/CrqJsJKc/s1TQ0AJossBQW0fbOf7NpFJF2/vQrYtNzEbv8udRRhlI7Y1h2NJv+8be0jf+BxCgloY/If0cuk501xl6ERfhsBZEz6jceMM7IXdRVhNE1zfWN3/z3FKxQQ0AZ13U3ikctMbts6kq1vlwZuNcmnak10WE/qK8JGc3zPxnYAPE3+x1IKCGjjbn9LpsmdZpZM6+fpAKtfM7Hb+1JnETZvSq4/pbEnAOeLtRQQ0PoNfxKP/drknS1kWL8/BUhGTfKJP5no8MOotwiTNeIHje0A+Cv5Hw0UEND6u//M20+QXYPyFOBfc4wz/lTqLsKkQXP9Z+/+1Q0iRwEBrdvxL/HgIGMyCTJrgJYFJmdcbaJ1Pai/CAvN8dc7kvN3HAB0FVMoHITC8MOMc+ORO9FNe9qyS5xuMJNdM5+kGrRFAZtXGmfM8bQJhMkkGQDst+MA4GDxGAWD6nsv39Pt4GOT+pu43KHrnvDJZ4aZ1MsTTOqV2/7t2RvdTWLiD19q4vecb2K39mnR+2H93kQwI/nk9bQThMkj4qs7DgC+IV6kYFAdS/F6uO/jNSmnXhxnMm9OM9kP3zD56EfGZFNNTQ0z+fg2uSt8z2TenWXSc/9qEtN/5+7nv6efmVk+k0wa1DcBHywoPAWi7SAc9MTfXv8eANRaJ8h/WELBoBom4iWfH2OyK18yuY//ZUwm1bbZ4k69u6Nfet49Jj7lJ40+FYjddbbJb19PJg3qioDYVhN/4BLaD8Jiieb8HZ8AfEf8i4JBUCfgOTcfY5JP3uC+082nYtKrF/no3WzK5KObTfrNx03szrN2mjiWeuEWY9JxMmmAJwOmFzxgOCkQIaG5/js7LgE8T/5DkoJB4O74bzrKJB79pclteqeMM8ey7ryB2G2nm9j4U032Ayb/BX4yoNSf2F/OpU0hDCKS8/u7yT9hW3vJf7iYQkHQ6KEu6flTKnPiXi7jzvpPL3zQfTJABPw1QHybST51A0sCERYXa+7XLYA7yr9cTYEgSOKTzzfZd2f54NYxI9kjRwatgsgsmea+SqJ9IQSu1tyvA4Au8i9/pkAQlGV9iYf/x2TXvc5++0RxpwJ8+IaJTeI1AEJhVMS2OukEwAPE3ygQ+D/5H1I4aa/+fe66iZK8BkhMHUI7Qxg8pLlfBwAHihkUCPy9tr+7id9/EcfsEiWN1Kt3GOfGb9DeUO005x+oewB8Tf5hMQUCX0/4u+27JrvxbTIUUdrXAO89b5w/f5s2h2q3WHO/PgGwxDIKBL5d6nfzMSbz1gyyE1H61wDRze7GTrQ7VDnN+ZbuAXCI/MM6CgR+lXxmuMmnY2QnoiyReGAgmwKh2q0SPfQJwJEiS4HAl8v9pvzY5DYt13szMhNR+icAmaSJ330ebQ/VLi2O+GQAQIHAf4/+xxxvMm88xnI/omyRWfWSccadvHNdHH6ocW45ycTu6Oe+HnDdeaaJTfhPE7v1NJcz7hS3vjqjvun+edovAuBIHQD0oSDgv1n/PUxi6uUm37CRrESUJ3IZ96jozx74FJ/8Q5N597nCGROfzhZMmdzHa9yTI1V23WKTefsJk559l7ujoG5PHb93gAwa+rrbVfNKAT7URwcAgykI+HHiX3rB/SQlonz5v35V4cTHz+w9kZo90ZhMsoXLCWSAsPUDk139mkkvetgdWOiJg/okQb8nbRw+MJgBAPy57O+us1nzT5T38f9bM9zH+DvVQz3sadXLbZ9bkIqZ3JbV7vdKvXybid/3UwYCqPwAwLGtaykI+G273+TTdvGP9CWI3SXo2FaTfGLoLocBxe+/2H0yULwflDf5dNzkox+ZjAwGEjOuNs7NR7sbXdH2UdanrJL79QnAHRQGfGXkESa7Zh5ZiShb6NkSsQnf2WUeSnLmCPmfmdIOPho2uDsQxiZ+zzg3Hkn7R7ncoQOAv1AQ8NXj//F93OVYBFGe7J826QX3NboKJb14avnmIGxbZ1IvjTexv/y3DIJ70RegLAOApykI+Elixu9JSkRZH//rORO7DETljjy3cVmZZyJmTW7DUpOcNcpdXvjZVxJAMc8D0AHAAgoCfsLsf6K8j/8Xm+hnH73XdTeJhy9t+ez/Yg1KEg0m+/5sk/j7le6cGPoFlMACBgDwnezKl8lKRNki+eSfdn38P/IIk37l9go/msibfOxjk174IHMDwAAA4cDmP0TZcmzKMc6Y43YdAIw+zmTXLvLJh8yb7Pq3CksHZWBCHwEGAKjOpSk3HeUukSKIckT6jcca3bo3dseZFXv839QkQV2V4Iw9kZ0FwQAA1bgB0H+5jz0JouQ31um4SUwd0ugafN0TwJefORl1z8fY5bwCgAEAGAAQRDMn/32w0MRu7dP4PJT3XvTvB89lTObt/zPO2BPoM9DmAcBCCgIMAIiwReqFW9zJfo1NAMzHt/t89JIymeUz3fZCv4FWWqgDgNUUBJgESITq7v/DJSb2l3MbrX96aI8JyEZUuXWLTfye8zlXAC0Wsa2PaigIMAAgwjXzL2FSL08w0RGHN1r/UrNGuY/ZAzOYWTPPxHX3QM4TQAsxAID/9gGQuzOCKNE0OndJ3e7u/t2NqN6aLn8sF6jfKrNilnHGn0r/AQYACPhOgG88Sp4iSpP+U45JPTOs0aV/nw5Ag3gQFRMDwQAA1SA1cySZiijZ43Jn1Der8wlUJmnS8+/b7asNgAEAKm/YIca58RvuaWvO+FNM7PYzTHzyj0xi2m9MYsbvTHohZwEQJbhJ3rbWxMadUtWvoHT1QvLZGxkEgAEA/JX0Y+NOlkR/vklM/1+TevVOk1n2lMl9tIKjf4nSJ0an3iT+/utmna4X9DkoufpVJvHQz1gZAAYAqPzWvrqHeer5MSbzztMmt+X9QM2wJqoh+W8xSal/zqjezTyM6iV3//0gR2bVyyZ223fZMhgMAFCBxD/2BJN82jaZ5c/IHclK6ZFSZCKi/JFOmPS8KcYZfWzz56C8PCH4g9RsyqRm38WrAOxxAMBGQCjiHX9vdx9199F+IhL4OykiyM/CMyaz9J/GueWkFtXhxNTL3QQa+CcfyWiTyx0ReqvZChhF0N04Y/7DJGb8vnC3TxCVTn4pp/DYvxXH5+rfyW39oCrKIbv6NePceCR9FHa7FTCHAaH1Rhxu4lN+YjJvTq+KuyaiCpL/9vUm9dL4Nk2CS710a5W8Aomb5FO1TAjEbg8DYgCA1j3ul7t+fc/vTuwjCB888s+uf9Mkp/+uzXe9sQn/6b7GqoLhkFsmsTv60meBAQCKQ2cYpxc9ZPKxrSQewheT3nQnvPhff1CciW/DDzPJ//ujySe2B38IkIya1HOjTXRYT/ouMABA2973xyZ+z2RXzwnMiWlElT/yj31skk/80d1YqpgH4ujKgfS8e6pg2Wre3QExdudZ9F9gAIDW3hUdauKTf2jy29aRdYjKhgw+daJeet5kE7u1T8nWuzs3H2tScyebfHxbwJ+QpE3K3SHwMPoxMABAC43sZRKPXWFy2z4k+RCVu5fVxL/hLZOWpBybdG55Jrfp6wBd2rphaaD3s8i+/6oMlk6jL8Mn5ugA4GkKAnvaxjfx6K/kjmuN+ziRIMr9fj+3ZbXJLHvSJJ8fbeK6tr2J0/xKJX73903qldtM9oMFJp+MBG/wlE6Y+MOXNms7ZITCVB0A/IWCwG5JZxG/d4B718WmPkTps1TW5KMfuftJZN573qRn32WSM6428XsuMM6fv1355Wwje5nYXWfJgPiX7o6BmeUz3c+aj2w0Jpf1ffGmX/+b/A5H0K9B3aEDgDsoCDQ12z/7wcJAdG5VmxNTjsltftfk1r/VKnrHml481aQXPthqupY8+Y+rW0U3iIo/OMidhNYst53uPqp2xp5onFHf8OcadhkY61JDZ+x/uJ/V/cx3nln4/JP67/T7654E6YUPuOWoKxWy614vXJtNy0w+kyhvXXLqjXPzMfRtKAwAHNu6loLA7tb5Z/RglLAl3NhWk14yzSRnDncTX+Jv/+MuL2stXVPuPnatqO5tY7dV+FbL7GSn8mz8Gml709cMWmcSDw026fn3ucf7FjuS/7yW/g1Gc78+ARhMYaCx9/7uoShhS/7puEm9cruJDmfNNCrcQd/4DZNdu6j4CyhWvUz5Qg1mAIDGD0R5+Ofu+urQDQAim0zikcuoA6j8AGBkL3f9finquHPz0ZQx3AFAHwoCO733H3eKyb4/W3qKXPgGAImGwnppdk1DhZN/csbvJVl/VPw6noya+P0XUc7oowOAIykI7LjZT+q5mwO5zKk4vWPO5J0tJrvypcLEuca8/ohJPjm09f5xtYlPucA9qrVV7uznPh6mvgYwseukQe866rv+5IzffVovUi/c4tatzJK/uzttaj0sySA8mzKpV2/neuBIHQAcIdIUBnSCUvzen5jcpuVMvS+MBnYv3xa5ttNVGa2k8xxyH73rzkZvLV1Olp4/pdV0Y53E47/d1cM/dydNOn/+lnFuOspfa9aHHWKcUb2Nc8uJ8hm/Y+IPDJTP/P9M8qnrd/rdMu88/Wk55TYuc1dxfFr++Wwj13OHuvFpHSvx1gpr5ldkLwX4hub8I3QA0EOsokDg3HS0Sc+bQt4nKj4RM7thqTvI0PX2uhS1YslKZ+ePPq6wtG/G7016wX1u8gz6IUE6yNdli/R7oaU5v4cOACyxjAIJu+4m9pf/dndcIwjfDAaSUZNd9cq/D/spY+LXuTCJ6f/rDkTcbYCraE5M7uM1Jn7fhfR74aU536qJ1lpfk39YTIGE3IjDTOqlW9nwh/Dp3gwfm8ybj7vvzku9r4C+etD9H7KrXzP56OaqnAyr8wuS/2A/gBBbrLlfnwAcKGZQICF//H/zMSbfsJFMQ/g3smmT2/xe4ZVAiSbAxh+4xGT/NdddDVLVA6qUY1KzbqLvCy/N+QfqAOAA8RAFEm76fpMgAvH4evO7Jjbu5CJO7utpYnf0M+lFDxUm7IUkdHtiDgYKLc35B9REbKuT/MMoCiTcu/7pwSsEEZQnAboc010lUITd9hKP/dpkP3wjdMWYWfoPNgQKr1Ga+2titrWPY1u/pUBCvPHP7X0DP6uZCNmcgIaNJvH3K9u4Jv8Ek5x1U0k22wnEAGD5TOPcchJ9YDjPAfit5v4aY1vt5F8GUCghfvz/xB+NScfJKkSARgB5k3lzmnuATqs6wD9/26Tn3VOSw3YYACAAA4ABmvtrNOQ/nC22UDDhlH7jUWb/E8GbC7BltYlP+UnLOz9JeplFD8mgNxbq8mMAEFqa68+u+STkX04T71MwYdya9AST+3AJ2YQI4mMAk3zyhhad2+Am/8VTvV33Qj6VYu1CE5v4X/SD4dwE6LRPBwAR2zpO/sMCCiZ84lN+zOY/RGAjPf9edwfL5g52M68/QqF9MgBY/6aJ3/19+sHweS1aax214xOAQ8UzFEz4JB6/qrDZCUEE8jH2M+7e/HtM/qN6m9TsO3nVteMAYM08tgMOpyfEITsOALqxF0A4pV4Y6+69ThCBTGIfLDDO+FP3uM4/+cSfGOh+dvD07izjjPs2/WD43O9uAvRJxG2rs/yHCRRMCCcA6uE/vA8lAhqFnQFPb/o1130XmdxHK6jnuzw9YRJgSFcAjE3ZVsdPBwAJ29KnANeLPAUUooow+jiTefsJekIiuEls1cvukr7d7nEx/lSTWfaUKccRu4Eru3eedudF0BeGiub4643k/J0iYltXyP9ooIBCNADQGdFyF0AQVTkHYMThJjlzpLtzILFrpBc93KIVFKgKDZrraz4b8j/OF2spIAYABBGYJPb6I8YZfexudrj8rsltXUMhNRb5nLsREv1g6GiOP3+XAYBT2AtgKQXEAIAgghLJmSNMdPhhjU9wfWk8BbS7/J+KmdTzY+gHw2eps+MeADs8AegpXqGAQnQGwPhTTfa9F+gNiWAmsfg2k5g6ROpy90bnt+Sj9RTS7sou8pFJTPsN/WD4aI7vucsAIG9b+8j/mEYBhekJwLdMZvmz9IZEICO78W0Tu/u8Xet2XXeTfGEsa/6biMI2yj+mHwyfaZrraxqLiG3dKX8gTSHxCoAg/B6Zt6YbZ8zxjdTrE91d7ogmBgBSPiwBDJ205via3YX8gavEdgoqPOcA6FIgggje7X/KfccfHXbIrrtb/v03Ju/w+H/3z/9z7vJf+sDQ2RZtbAXADhMBz5E/sJGCCokRh5n0YvZGJ4L4DnuTm+h3GdSO7GXSr/9NbnEzFNJuH50kTfK50fR/4bNBcvxZTT0BOFqsoaBCtBPggvvpEIngPcLW9/+Tztl1Yutff+j+P6KJwVMyauIPXEL/Fz6a249uagDQTrxJQYXoMKBHf2ly9SuNSSfkzgDwP737dx//1+06+z/+4ECT27DUXSGQj2/HZ8U+Npl3npKy60H/Fz6a29vVNBUR2/onBRUiww9z7wZSL08wqVfvAHwv8cBAd5e/xuvzoe4Rt4nHfu0uc8NnPDjIPRmRvi98JLc/XrOnkD84isICAKCK1Fq1exwAyCjhBxwKBABA9RwCpLm9OU8AejMAAACgegYAmtv3OABwChMBExQYAABVIeHsaQLgDk8BnqXAAACoCs/WNDfkDw+jwAAAqApDmz0A8HYEpNAAAAg4yelntmQAcJj8pQ0UHAAAgaZbAB/W7AFAxLa6yV+aRcEBABBoszSnt+QJQGf5S2MoOAAAAm2M5vSWDADay1+6VGQoPAAAAklz+KWa02taEvKX+olNFCAAAIGkObxfTUtD/tJRYg4FCABAIGkOP6o1A4ADxGQKEACAQNIcfkCLBwDGtto7tnW9/OU0hQgAQKCkNYeblr7/3+EpwACxnoIEACBQNHcPqGltRGut4+UbLKIgAQAIlHmSw49u9QAgYlsd5Zs8TkECABAo08Q+NW0JGUFcJd+kgcIEACAQGjR317Q1HNs6Tb7ZOgoUAIBAWKe5uxgDgP2YBwAAQGAs0txdU4yI2NZEChQAAP/TnF1TrJBvdp580zwFCwCAr+U1ZxdtAJC1rS7yTVMULAAAvpbSnF1TzJBv+ioFCwCAr71aU+yQbzqUggUAwNeuLsUA4FReAwAA4N/H/+LEog8AIrZ1kFhIAQMA4MvZ/ws1V5diANBJfsBIVgMAAOC/2f+aozVX15Qi5BufLT9gKwUNAICvbJEcfVZNqSJaax0lP+Q1ChoAAF95TgYAvUo2AIjb1hcc27qDggYAwFdukQHA50s2ADC21S5aa/1MftBmChsAAF/YLLl5UE2pw7Gt3vLD5lLgAAD4wlzNzSUfABjb6iA/bLLIUOgAAFSU5uLJmptryhHRWuti+YH1FDwAABVVrzm5plwRt62vyw99j4IHAKCi3tOcXLYBgLGtvWTEcW+UTYEAAKiUvOZizck15QzHts6RH57jAgAAUBFZzcU15Q4ZcXxefvhGLgAAAOUXsa3VppRr//ewNfBoLgIAABUZAIyuqVTIBzhZRLgQAACUlebekys5ADhQPMOFAACgrKaLrhUbAMRt63OObQ2JsikQAADlkpHce5nm4JpKRrTWOk4+zEIuCAAAZTFfcu8xNZUOGYXsFy2cEMiSQAAASisXsa3xokuNH0I+yIXyoTZwYQAAKKkNmnNr/BKxWusg+VCzuDAAAJTULM25vhkAJGyrnXyo4SLGxQEAoCQ0xw7XnFvjp4jZ1rHywVZygQAAKImVmmtr/BZ6FnHEth6NckAQAADFltccq7m2xo8hH7A/qwEAACj+7H/Rt8av4djWvvIBl3KhAAAoqqUJv97977Ak8Jc8BQAAoKh3/5fU+D1kAHAwTwEAACje3b/mVt8PAGKF1wB/EFkuGgAAbaK59A+aW30/ADCFPQFOFcu4cAAAtInm0lON39b+N/EUQM8HmMiFAwCgTSZqTq0JSuguRRHbOlc++CouHgAArbJKc2kiKHf/nzkl8BHmAgAA0Kp3/484Qbr7/8zGQANFPRcSAIAW0dw5sCaoEbGtrmIuFxIAgObT3Kk5tCbIIb/IkCgbAwEA0FyaM4fUBD2cwiFB73JBAQBo1t3/u47ft/1twSBgsPxSKS4sAABNSmnOrKmWkNFMN/mlZnNhAQBo0mzNmVUzANBHGfJLXSZiXFwAABqlOfKyqnn8v8NkwF7ieS4wAACN0hzZq6baQkY0e0Vs6wr55Rq4yAAA7KRBc6TmyppqDPnFesgvOVPkudgAALg0J87UHFlTzSEjnN/IL7qNCw4AgGub5saaag8Z4XxFftF5XHAAANx1//M0N9aEIeQXvjzK7oAAAGguvLwmLOHtDriCCw8ACPnd/4qqW/bXjLkAF8gv71ABAAAh5WgurAlbyC++v3iUCgAACCnNgfuHbgDg2Nbe8ov3F2upBACAkNHc119zYU0YI2ZbX5QCGC8yVAYAQEhozhuvObAmrGFsS18F9BFLqBAAgJDQnNdHc2DoI2Jbf5LCiFIpAABVLqo5j8z/7/kAPaOF44LZIhgAUK00x83WnEfm33lVwCCRpYIAAKqU5rhBZPxdBwCdI7b1AhUEAFClm/5ojutMxm/8VcAZEQ4KAgBUX/LfpjmOTL/7pwBdxASWBQIAqmzZn+a2LmT63S8LbCcjpJOkkBZRYQAAVWKR5jbNcWT6pp8CdBRXinoqDQAg4Oq9nNaRDN+8HQK7SWFNj3JkMAAguDSHTdecRmZv2auA06Xg3qcCAQACamXEtr7No//WvQ7QHQJTVCIAQMBo7mLHv9ZGwra+IKOnOVQkAEDAlv3N0RxGJm/bU4BzxRYqFAAgIDRnnUsGb/sAoJMYS4UCAASE5qxOZPC27w7YLlprHR3lsCAAgL+5h/1oznKY+Fe0VQHtpVAHi41UMACAT2mOGqw5i8xdxIjY1pelYO8ScSoZAMBnNDfdpbmKjF2KDYJqrd5SwK/zKgAA4LNH/69rjiJTl+5VwN5SyP1FmgoHAPAJzUn9NUeRqUs7KVDnA4wTWSodAKDCNBeNc3jvX7algV3F01HOCgAAVE7Oy0Vdyczl2yFQXwX0FSuogACACtEc1DfBo/+yvwroLAV/ndhGJQQAlJnmnus0F5GRK7Mq4KtyAWbwKgAAUOZJf1M1B5GJK7cqoJ1chGPFO1RIAECZLBPHcMyvHyYF1loD5GI0UCkBACXWoDmHzOuvlQGTRIbKCQAoEc0xk8i4/hsAHBqxrSepoACAUvByzKFkXJ9FpLA08AzxNhUVAFBkmlvOiLDkz7dzAXSXwEFiPZUVAFAk693cUstuf35fGdBBLpQtolRaAEAbaS6xNbeQYYOxSdCX5II9yP4AAIA20BwyRXMKmTVYg4DD5cItpAIDAFppoeSS7mTUYA4CzpELuJFKDABooY2aQ8ikAY2EbXWUizhERKjMAIBm0pwxRHMImTTYywN1PsBo4VCpAQB7oLlidIT3/lWzSVBP8ahIUbkBALuR8nJFTzJnNc0HqLVOlIs6V+Sp5ACAz9DcMFdzBRmz+vYH2NuxrdMjhTOcqewAgE9pbojZ1kmGnf6qdlKgbhf8Y5GkwgMAvOS/Xb5ewPG+1b80cF9xjVzsrVR8AAi9rZoTNDeQIcMxCDhALvrNUT3XmcoPAGGlOeBmzQlkxnAtD+wuJrE8EADCudxPc0CEnf7CGTHbOkQqwSxWBgBA6Gb8z9IcQCYM78qAdgnbOjhaODOAQQAAhCP5L9C+n0l/hM4J6B2xrWVRTg8EgGqW074+zp0/scMAoL1UjH5iMQ0EAKo2+S/Svl77fDIfseMgoINUjAFiNQ0FAKrOSl3rr309GY9obBDQSfw8yhHCAFBN9Gjfn2sfT6YjmhoE7OMUngSwRwAAVMFaf+3TtW8nwxHNHQj8VCpOPY0HAAKrXvtyMhrRopCKs6+4lkEAAAQz+Xt9OFv8Ei2PiG11FcMZBABAsJK/9t3ah5PJiLYOAkZGC6dF0bAAwN+2a59N8ieKNQjoJEZIxUrQuADAtxLaV0eY7U+UYCAwgicBAODbO/8RZCqilE8CRjInAAB8985/JHf+RMnnBEhlGyo+pNEBABP+iBCFVLgvil+IDTQ+AKjsUj+SP1HW8HYMvJAdAwGgYjv8/ZR1/kQlBwK6bTBnBwBA+eje/gPIQETFnwRIZRwolokcDRMASkb72JXewT7s7U/4Yk5AR3Gud9Y0gwAAKEHy9/rYCzjVj/Dbk4AOUjH7RQpPAvI0VgAomrzXt/bTvpaMQ/hxENBe9JZKupBBAAAUJ/mLBXHbOkT7WDIN4etI2NbBUmGfEQ6NFwBaTfvQWdqnklmIwETEtg6Sinu72EIjBoCWL/OTfnRSTO78jW21I6sQQZsc+BVxA4MAAGiRreJmGQB0J5MQQZ4XsJ9U5IsihQpNwwaAJkhfuV36zWvEAWQQohoGAZ+Tiv0jqdjrmRwIALud6b/NW+bH7n5E9YS+w4rZ1klSueeIBI0dAD6VEnO1j+R9P1Gtg4C9pZIfJx5mhQAAfDrT/1Gn1jpR+0gyBVHtkwN7itEiQuMHEGIRry/sSWYgQhMR2/qSVPohUQ4SAhBO2vcN0b6QjECELhK21dGxrXO8nQM5QwBAKPb01z5P+z7tA8kERKhDGsLh0iAeFFE6BwBVTPu4KQ7r+wlip0GAvhKwo4WlgnQUAKqN9m22wyN/gtg1TOFEwUHibToLAFVE+7RBhpP8CGL3Ea212ktDOSNiW0/K1wwdB4AAy3h92Rnat9HDE8QeIlLYL+BQMUkPxKATARBADV4fdmiE9f0E0aonAgOkAb3DKgEAAZEWy7TvogcniLYOAmzrWDEjWtgnmw4GgF9pHzVVHEPPTRDFmRzYLlZrfVUa1XViBU8DAPhwbb/2TddpX8V+/gRR5HBsq7M0sL7iaZGl0wHgA1mvT+qrfRQ9NUGUKBKFCYJdxTjvXRvHCwOohLzXB2lf1DXBRD+CKNvTAF0u2F+8LuJ0RgDKKO71Pf21L6JHJojyzw3YO1Zr9ZZGeJd3sAZPAwCU+q5f+5q7tO/h+F6CqHBEbOvL0iAHi9l0UABKSPuYwdrn0PMShH+eBrSP1lpHS+McK7bQUQEooi1u3yJ9jOGRP0H4cl5AO2mkncS5MkKfI19TdFwA2iDl9SXnat/isLyPIPwfCdv6gjTYP4n32TcAQCvW9Wvf8SftS+hRCSKYTwVOl0Y8XdTTqQFoBu0rpmvfQQ9KEMGeG9AuZlvdpEFfKRZxwiCA3Z3c5/URV2qfwW5+BFElIY26o4zoT5KvEyKcKQBgB16fMMHrIzrSYxJEFT4NkMbdRRr5GdLgX/C28GTvACC8a/qz2hdon6B9A3f9BBGOJwJ6rsAgb11vlM4QCJWo1/a1D2D/foIIY8jIv2eksFpgCfMDgFC851+ibV7bPj0gQRD6RKCPGC/W0kkCVWmt18b70OMRBLHj/ICamG190Ttg6FHh0GECVcHx2nR/bePa1gmCIBp7JaDHDe8fsa0LxAo2EQKCu5mPtmFty9qmHQ7uIQiiBYOBDtJxXC4dyLxoYZkQKwYA/8/s3+a12cu1DdOTEQTRloHAV6RD+Y10KDNFA50s4EvaNmdqW9U2S89FEEQxBwI9pHO5QjqZ50WMDhfwBW2Lz2vb1DZKT0UQRKkGAXtJZ9NLXOatI+bEQaBCJ/V5bVDbYi9tm/RQBEGUYyDQQe44usnXwfL1XSYLAmWd3Peu1/a68Z6fIIiKDgakUxoindFc7ySxLJ00UFTapuq9NjaEpE8QhK9COqeu0jkNFI+IVXTaQFGs8trUQG1j9DQEQfj5icB+0lGdKx3WRLGMJwJAq+74te1M1LakbYqehSCIQETCttrFpNOSDuxU8QexlHkCwJ7f73ttRdvMqdqGEpzQRxBEEMMUBgL7yl3MweKXOwwE2FQI+PfmPZ8k/ku0rWib4WhegiCq7cmAThjsGynsTb6S/QQQ8vX7K7220DfBxD6CIELyZKCD3OUcKx3fcDFLbOAVAULyiH+DV+eHaxswJH6CIEL6RKBdrNY6SO6CLowUjiqd751ZTrJANdE6PV/ruNZ1rfO82ycIgvBCOsYu0VrrGKews9l0ESFxIOC0Dk9367TUba3jtHSCIIjdRNy2Phct7ClwsnSYo+XrRiYOImAT+jZ6dfdkrctap2nZBEEQLQxjW5+XO6hz5A7qXulM3/N2G+Q1Afz0eL/erZtSR7Wuap2l5RIEQRRvILCX3El9XTrZi6WznRwtbIu6mQSECtns1cHJWie1bhoO5CEIgij5YKCD3Gn1lo73Z9IBTxDPiS28JkCJH+9v8eraLVL3BmkdZBY/QRBEZQYCutFQ54ht9RJnScc8Ur4u5JhiFPPYXa9Oad06y6trPOInCILwU0jH3Ekc5G1BPFS86g0GeDKAltzpp7y6c7U4UeuU1i1aGEEQRIAia1tdpPM+L1I4nGiRWCcaSHTwNHh1YlGkcPjOeVmW6xEEQVRX6Klq4rRorXWVdPiPewOC9SJNIgyNtHfN54lpWhe0TnDiHkEQREhC7vQ6Sud/vCSBAdL5X++tLJgjNrHMsOqW6W3yru1k71oPkGt/tHzdh5ZAEAQR4jC21V6SwQHiKNFPXCrG7HBOAYk0WD7Zb3+Mdy37edf2AL3W1HiCIAii0ZC7xPZOYXVBN/l6mLsRkW0NE8+KBJMKfTVhL+9dE702Q+VananXzLt2nR0SPkEQBFGkwUE7oWcWDNT14JHCneZy8YG3I5zu/54lORf1nf02765+jXgzovM3aq1a+foD+ffeDgfrEARBEJWIhG3tL4lI5xNcIq7x5hPoJMNXNGF5iauBJwd7vJvXMlorlnplN02S/J3y9QqnsM+Dvrcn2RMEQRD+jbxt7SPJqqckrlPk6w8kkV0RLUxAmyQe8d5RLxH/CtnJh7qb3irxmnhC3O/t5ni9V0bnuys1pOzyTNIjCIIgqiEksblLESW5fVX0itZaJ8jX70ji6y9fL/Y2nhklHhIzxGKxzEuY6YA8rl/lfebF3u+gv8so+b1/6+jse9s6O1pYiqmT8g4RB8Ztq3NCyoYgCIIgQheSAPeSBNlRd5zzViQcKEnya/LVEj3EEeJI0UcMVvLnr5Wvd3g02S7YjYWRZhyc5P2ZhU18nxmf/DzvZw/29PE+2xHeZ7W8z36g/i76O8Xkbt7w+J4gfBP/H9ZMV2Y2EFZXAAAAJXRFWHRkYXRlOmNyZWF0ZQAyMDIxLTAxLTMxVDAxOjMxOjEwKzAwOjAwVricWwAAACV0RVh0ZGF0ZTptb2RpZnkAMjAyMS0wMS0zMVQwMTozMToxMCswMDowMCflJOcAAAAASUVORK5CYII=;" vertex="1" parent="1">
          <mxGeometry x="280" y="410" width="160" height="160" as="geometry" />
        </mxCell>
      </root>
    </mxGraphModel>
  </diagram>
</mxfile>
